<?xml version="1.0" encoding="utf-8"?>
<!-- Generator: Adobe Illustrator 18.1.1, SVG Export Plug-In . SVG Version: 6.00 Build 0)  -->
<svg version="1.1" xmlns="http://www.w3.org/2000/svg" xmlns:xlink="http://www.w3.org/1999/xlink" x="0px" y="0px"
	 viewBox="0 0 1013.9 359.6" enable-background="new 0 0 1013.9 359.6" xml:space="preserve">
<g id="PT" display="none">
	<g display="inline">
		<path fill="#FFFFFF" d="M63.8,356.8c2.1,0,3.9-0.8,5.5-2.3c1.5-1.5,2.3-3.3,2.4-5.5v-68.3c-0.2-2.1-0.8-3.7-1.8-4.7
			c-2-1.8-4-2.7-6-2.7h-1.6v-1.2h46.9c4,0,7.3-0.3,9.9-0.9c2.6-0.6,4.2-1,4.8-1.3v21.5l-1.2-0.1V290c0-5.1-1.9-8.7-5.6-10.8
			c-1.8-1.1-3.9-1.6-6.4-1.7H90.1v35.7h16.2c3-0.1,5.5-1.1,7.5-3.1c2-2,2.9-4.5,2.9-7.4v-1.1h1.2v28.3h-1.2v-1c0-3-1-5.5-2.9-7.5
			c-1.9-2-4.4-3-7.3-3.1H90.1v34.4h16.1c6,0,11-1.7,15-5.1c4-3.4,7.1-8.3,9-14.6h1.2l-5.6,25H62.3v-1.2H63.8z"/>
		<path fill="#FFFFFF" d="M193,284.5h34.4v1.2h-2.1c-1.9,0-3.5,0.6-4.7,1.7c-1.3,1.1-1.9,2.6-2,4.4v53.6c0,5.1,0.3,9.2,1,12.5
			l0.2,1.7h-1.1L162.5,310v40.6c0.1,1.8,0.8,3.3,2,4.5c1.3,1.2,2.8,1.8,4.7,1.8h2.1v1.2H137v-1.2h2c1.9,0,3.5-0.6,4.8-1.8
			c1.3-1.2,2-2.7,2-4.5v-53.9c0-4.9-0.3-9-1-12.1l-0.2-1.7l1.1,0.1l56.1,49.4V292c0-1.8-0.6-3.3-1.9-4.5c-1.3-1.2-2.8-1.8-4.7-1.8
			H193V284.5z"/>
		<path fill="#FFFFFF" d="M244.9,349.4c-7.8-6.7-11.8-16.1-11.8-28.1s3.9-21.4,11.7-28.2s18.6-10.2,32.4-10.2
			c10.8,0,20,1.9,27.6,5.6V308H304c-2-7.3-5.2-12.5-9.4-15.6c-4.2-3.1-9.6-4.7-16.1-4.7c-8.7,0-15.3,3-19.9,8.9
			c-4.6,5.9-6.9,14-6.9,24.3c0,10.3,2.2,18.4,6.7,24.5c4.7,6.2,11,9.3,19,9.3c5.8,0,10.6-0.9,14.3-2.7c3.8-1.8,6.7-4.7,8.9-8.6
			c2.2-4,3.8-9.3,4.9-16.1h0.9l1.5,18.5c-2.5,4.2-6.4,7.5-11.6,10.1c-5.2,2.5-11.6,3.8-19.2,3.8
			C263.5,359.5,252.7,356.1,244.9,349.4z"/>
		<path fill="#FFFFFF" d="M316.7,356.8h1.5c2,0,3.6-0.6,5-1.9c1.4-1.3,2.1-2.8,2.1-4.6v-58.1c0-1.8-0.7-3.3-2.1-4.6
			c-1.4-1.3-3.1-1.9-5-1.9h-1.5v-1.2h34.8v1.2h-1.5c-1.9,0-3.5,0.6-4.9,1.8c-1.4,1.2-2.1,2.7-2.2,4.5v58.2c0.1,1.9,0.8,3.4,2.2,4.7
			c1.4,1.2,3,1.8,4.9,1.8h1.5v1.2h-34.8V356.8z"/>
		<path fill="#FFFFFF" d="M370.5,349.4c-7.8-6.7-11.8-16.1-11.8-28.1s3.9-21.4,11.7-28.2c7.8-6.8,18.6-10.2,32.4-10.2
			c10.8,0,20,1.9,27.6,5.6V308h-0.9c-2-7.3-5.2-12.5-9.4-15.6c-4.2-3.1-9.6-4.7-16.1-4.7c-8.7,0-15.3,3-19.9,8.9
			c-4.6,5.9-6.9,14-6.9,24.3c0,10.3,2.2,18.4,6.7,24.5c4.7,6.2,11,9.3,19,9.3c5.8,0,10.6-0.9,14.3-2.7c3.8-1.8,6.7-4.7,8.9-8.6
			c2.2-4,3.8-9.3,4.9-16.1h0.9l1.5,18.5c-2.5,4.2-6.4,7.5-11.6,10.1c-5.2,2.5-11.6,3.8-19.2,3.8
			C389.2,359.5,378.4,356.1,370.5,349.4z"/>
		<path fill="#FFFFFF" d="M442.4,358v-1.2h1.5c1.9,0,3.5-0.6,4.7-1.8c1.3-1.2,1.9-2.7,1.9-4.5v-58.2c0-1.8-0.7-3.3-2-4.6
			c-1.3-1.3-2.9-1.9-4.7-1.9h-1.5v-1.2h34.1v1.2H475c-1.9,0-3.5,0.6-4.8,1.8c-1.3,1.2-2,2.8-2,4.7v60.9h14.7
			c5.1-0.1,9.4-1.7,12.9-4.7c3.5-3.1,6.1-7.4,7.7-12.9h1.4l-4.8,22.6H442.4z"/>
		<path fill="#FFFFFF" d="M510.9,321.3c0-11.8,3.9-21.1,11.8-28s18.4-10.4,31.5-10.4s23.6,3.5,31.6,10.4c7.9,6.9,11.9,16.2,11.9,28
			c0,11.8-4,21.1-11.9,28c-7.9,6.9-18.4,10.4-31.5,10.4s-23.6-3.5-31.5-10.4C514.8,342.4,510.9,333,510.9,321.3z M529.6,321.3
			c0,10.3,2.2,18.4,6.7,24.5c4.5,6,10.4,9,17.9,9s13.4-3,17.9-9c4.5-6,6.7-14.2,6.7-24.5s-2.2-18.4-6.7-24.5s-10.4-9-17.9-9
			s-13.4,3-17.9,9C531.9,302.8,529.6,311,529.6,321.3z"/>
		<path fill="#FFFFFF" d="M666.4,317.5c-4.1,7.1-10.5,10.7-19.2,10.7c-4.3,0-8.6-1.4-12.9-4.3v-1c8.2,0,13.4-4.2,15.7-12.5
			c0.5-1.9,0.7-3.4,0.7-4.5c0-5.6-1.3-9.8-4-12.5c-2.7-2.7-6.3-4-10.8-4h-5.5v61c0.1,2.6,1.2,4.5,3.3,5.6c1,0.6,2.1,0.9,3.3,0.9h1.5
			v1.2h-33.8v-1.2h1.5c1.8,0,3.3-0.6,4.6-1.8c1.3-1.2,1.9-2.7,1.9-4.5v-58.2c0-1.9-0.6-3.4-1.9-4.7c-1.3-1.2-2.8-1.8-4.7-1.8h-1.5
			v-1.2h36.3c9.4,0,16.4,1.9,21.1,5.6c5,3.8,7.5,9.1,7.5,15.8C669.4,310.2,668.4,314,666.4,317.5z"/>
		<path fill="#FFFFFF" d="M734,358h-57.7v-1.2h1.5c1.9,0,3.5-0.6,4.7-1.8c1.3-1.2,1.9-2.7,2-4.5v-58.3c-0.1-1.8-0.8-3.3-2-4.5
			c-1.3-1.2-2.8-1.8-4.7-1.8h-1.5v-1.2h43.1c2.2,0,4.6-0.2,7.2-0.6c2.6-0.4,4.5-0.8,5.5-1.2v19.5h-1.2V301c0-3.6-1-6.4-2.9-8.5
			c-2-2-4.7-3.1-8.2-3.2h-17.7v29.8h14c2.8-0.1,5-1,6.7-2.8c1.7-1.8,2.6-4.1,2.6-7v-0.7h1.2v26h-1.2v-0.9c0-3.8-1.4-6.6-4.3-8.3
			c-1.5-0.9-3.1-1.4-4.9-1.4h-14.1v29.1h14.7c5.1-0.1,9.4-1.7,12.9-4.7c3.6-3.1,6.1-7.4,7.8-12.9h1.1L734,358z M706.5,276.9
			l-0.9-0.9c3.5-6,9.4-12.8,17.7-20.2c3.9,2.1,6.7,5.5,8.3,10.1C723.2,271.2,714.8,274.8,706.5,276.9z"/>
		<path fill="#FFFFFF" d="M817,294.2c7.4,6.5,11.2,15.5,11.2,27s-3.7,20.5-11.2,27c-7.4,6.5-17.7,9.7-30.9,9.7h-41.4v-1.2h1.6
			c1.9,0,3.5-0.7,4.8-2c1.3-1.3,2-2.9,2.1-4.7v-58.1c-0.2-1.8-0.9-3.3-2.2-4.5c-1.3-1.2-2.9-1.8-4.8-1.8h-1.5v-1.2h41.4
			C799.2,284.5,809.5,287.7,817,294.2z M784.6,353.1c7.7,0,13.7-2.8,18.2-8.5c4.5-5.6,6.7-13.4,6.7-23.4s-2.2-17.8-6.7-23.5
			c-4.5-5.7-10.5-8.5-18.2-8.5h-13.9v63.9H784.6z"/>
		<path fill="#FFFFFF" d="M835,356.8h1.5c2,0,3.6-0.6,5-1.9c1.4-1.3,2.1-2.8,2.1-4.6v-58.1c0-1.8-0.7-3.3-2.1-4.6
			c-1.4-1.3-3.1-1.9-5-1.9H835v-1.2h34.8v1.2h-1.5c-1.9,0-3.5,0.6-4.9,1.8c-1.4,1.2-2.1,2.7-2.2,4.5v58.2c0.1,1.9,0.8,3.4,2.2,4.7
			c1.4,1.2,3,1.8,4.9,1.8h1.5v1.2H835V356.8z"/>
		<path fill="#FFFFFF" d="M955.6,356.8h1v1.2h-36v-1.2h1c1.6,0,2.8-0.5,3.6-1.5c0.7-1,1.1-1.9,1.1-2.7c0-0.8-0.2-1.7-0.5-2.6
			l-4.8-11.3h-26l-4.9,11.4c-0.3,0.8-0.5,1.7-0.5,2.5s0.4,1.8,1.2,2.7c0.8,0.9,2,1.4,3.6,1.4h1v1.2h-24.5v-1.2h1
			c1.7,0,3.4-0.5,5.1-1.6c1.7-1.1,3.1-2.7,4.2-4.8l25.4-54.4c3.6-8.1,5.5-13.1,5.6-15h1.1l32.9,68.9c1.1,2.4,2.5,4.1,4.2,5.2
			C952,356.3,953.8,356.8,955.6,356.8z M897,334h21.8L908,308.4L897,334z"/>
	</g>
	<g id="THS2y9_1_" display="inline">
		<g>
			<path fill="#FFFFFF" d="M502.2,186.8c-1-1.2-0.7-2.3-0.7-3.4c0-37.5,0-74.9,0-112.4c0-2.1,0.1-4,2.1-5.5c1.3-1,1.9-2.7,2.2-4.3
				c1-5.7,4.3-9.9,8.7-13.4c6.5-5.1,13.8-8.9,21.3-12.3c17.1-7.7,34.7-14.1,53.5-16.1c9-1,18-1.4,27-3c11.4-2,22.4-5.4,33.1-9.6
				c2.4-1,3.5-0.7,4.5,2c10.6,30.8,21.3,61.6,32,92.4c0.9,2.7,1.9,5.4,2.9,8.1c0.6,1.6,0.4,2.7-1.4,3.4
				c-16.1,6.3-32.6,11.4-49.9,13.7c-13.7,1.8-27.7,1.9-41.3,5c-27.1,6.1-52.7,15.9-76.2,30.9c-3.5,2.2-6.6,4.9-9.4,7.9
				c-3.4,3.7-5.9,7.9-6.8,12.9C503.5,184.4,503.4,185.7,502.2,186.8z"/>
			<path fill="#FFFFFF" d="M496.7,185.2c-0.3-0.6-0.5-0.9-0.5-1.1c-1.9-11.2-9.9-17.9-18.8-23.3c-25.8-15.6-53.5-26.2-83.3-31.1
				c-11.6-1.9-23.3-2.1-34.9-3.8c-16.1-2.4-31.4-7.3-46.5-13.1c-2-0.8-2.4-1.8-1.7-3.7c6.5-19.2,13-38.4,19.5-57.6
				c4.8-14,9.5-28,14.3-42.1c1.3-3.9,1.4-3.9,5.2-2.4c16.8,6.7,34.1,10.6,52.1,11.6c20,1.2,38.8,7.1,56.9,15.1
				c8.5,3.7,16.9,7.7,24.3,13.3c4.9,3.7,8.7,8.2,9.8,14.4c0.2,1.2,0.5,2.6,1.5,3.3c3,2.2,2.8,5.2,2.8,8.3c0,35.9,0,71.8,0,107.7
				C497.4,182.1,497.7,183.5,496.7,185.2z"/>
			<path fill="#FFFFFF" d="M533,174c6.4-3.4,13.3-5.4,20.2-7.4c14.9-4.3,30-7.8,45.5-9.4c10.8-1.1,21.5-0.8,32.3-0.2
				c22,1.2,43.5-1.4,64.7-7.1c2.6-0.7,3.5,0,3.8,2.6c0.5,5.1,1.1,10.2,1.8,15.3c0.4,2.9-0.6,4.1-3.5,4.3c-6.9,0.4-13.7,1.1-20.6,1.4
				c-18.1,0.8-35.8-2.3-53.6-5.3c-15.3-2.5-30.6-2.7-46.1-1.2C562.6,168.5,547.7,170.5,533,174z"/>
			<path fill="#FFFFFF" d="M466,174c-4.3-0.9-8-1.8-11.8-2.6c-19.3-3.7-38.8-5.9-58.5-5.3c-11.8,0.4-23.5,2.5-35.1,4.5
				c-17.7,3.2-35.5,3.7-53.4,1.7c-2.1-0.2-4.3-0.6-6.4-0.6c-2.3,0-2.8-1.2-2.5-3.2c0.7-5.6,1.4-11.2,2.1-16.8c0.3-2.3,1.6-2.5,3.5-2
				c11,2.8,22,5.1,33.3,6.3c12,1.3,24,1.2,36,0.6c13.8-0.7,27.5-0.1,41.1,2.3c16.2,2.9,32.1,7.1,47.6,12.7
				C463.2,172,464.7,172.2,466,174z"/>
			<path fill="#FFFFFF" d="M532.7,164.4c2.9-2.4,6.2-3.9,9.6-5.4c18.4-8.5,37.3-15.8,57.4-19.6c9.1-1.7,18.3-2.6,27.5-3.3
				c20.3-1.5,39.7-6.6,58.6-13.9c7-2.7,7.1-2.8,9.3,4.4c1.1,3.6,1.7,7.4,2.7,11.1c0.5,2-0.1,3-2.1,3.6c-10.3,2.6-20.6,4.8-31.1,6.1
				c-10.7,1.4-21.5,1.8-32.3,1.1c-7.5-0.5-15-0.5-22.5-0.4c-17.6,0.3-34.7,3.9-51.6,8.4C549.5,158.8,541.1,161.5,532.7,164.4z"/>
			<path fill="#FFFFFF" d="M467.2,164.8c-11.8-4.6-23.3-7.7-34.8-10.7c-20.8-5.4-41.9-7.2-63.3-5.8c-21.7,1.4-42.8-1.7-63.8-6.7
				c-2.9-0.7-3.8-1.9-3-4.9c1.2-4.5,2.2-9,3.9-13.3c1.1-2.8,2.4-3.5,5.3-2.3c15.2,6.1,30.8,10.9,47,13.4c8.2,1.2,16.5,1.9,24.8,2.6
				c18.6,1.5,36.4,6.4,53.7,13.2c9,3.5,17.9,7.3,26.5,11.7C464.7,162.5,466.1,162.8,467.2,164.8z"/>
			<path fill="#FFFFFF" d="M460.7,181.4c-3.9,1-7.6,0.1-11.3-0.1c-11.2-0.6-22.4-0.6-33.6,0c-13.4,0.7-26.6,2.5-39.5,6.1
				c-9.9,2.8-19.7,6-29.6,8.5c-15.6,3.9-31.6,5.4-47.7,5.3c-2.3,0-3.1-0.7-2.8-3.1c0.5-4.8,0.7-9.6,0.9-14.5c0.1-2.7,1-3.8,3.9-3.4
				c11.1,1.4,22.3,1.5,33.5,1.5c13-0.1,25.7-2.5,38.5-4.7c15.7-2.7,31.4-3.3,47.3-1.8c12.2,1.1,24.3,2.7,36.3,5.1
				C458,180.7,459.3,181.1,460.7,181.4z"/>
			<path fill="#FFFFFF" d="M539.1,182.3c3.1-1.9,6.5-2.2,9.9-2.9c19.6-3.7,39.3-5.4,59.2-4.4c10.7,0.5,21.2,2.7,31.7,4.5
				c16.5,2.8,33.1,3.5,49.7,1.7c3.3-0.3,6.6-0.5,9.8-0.8c2-0.2,2.8,0.7,2.9,2.6c0.3,5.5,0.7,11.1,1,16.6c0.1,1.7-0.9,2.1-2.3,2.1
				c-21.1-0.5-42-2.7-62.3-9.4c-14.4-4.8-29-8.6-44.1-10c-16.4-1.5-32.8-2-49.3-0.4C543.4,182.1,541.3,182.1,539.1,182.3z"/>
		</g>
	</g>
</g>
<g id="EN" display="none">
	<g display="inline">
		<path fill="#FFFFFF" d="M62.8,353.9c2.1,0,3.9-0.7,5.4-2.2c1.5-1.5,2.3-3.3,2.3-5.4v-67.1c-0.2-2.1-0.8-3.6-1.8-4.6
			c-1.9-1.8-3.9-2.7-5.9-2.7h-1.6v-1.2h46.1c3.9,0,7.2-0.3,9.8-0.9c2.6-0.6,4.1-1,4.7-1.3v21.1l-1.2-0.1v-1.3c0-5-1.8-8.5-5.5-10.6
			c-1.8-1-3.9-1.6-6.3-1.7H88.6V311h15.9c3-0.1,5.4-1.1,7.3-3.1c1.9-2,2.9-4.4,2.9-7.3v-1.1h1.2v27.8h-1.2v-1c0-3-0.9-5.4-2.8-7.3
			c-1.9-1.9-4.3-2.9-7.2-3H88.6V350h15.8c5.9,0,10.8-1.7,14.8-5.1c4-3.4,6.9-8.1,8.9-14.3h1.2l-5.5,24.6H61.3v-1.2H62.8z"/>
		<path fill="#FFFFFF" d="M189.8,282.9h33.8v1.2h-2c-1.8,0-3.4,0.6-4.6,1.7c-1.2,1.1-1.9,2.6-2,4.3v52.6c0,5,0.3,9.1,1,12.3l0.2,1.7
			h-1.1l-55.3-48.8v39.9c0.1,1.8,0.7,3.2,2,4.4c1.2,1.2,2.8,1.7,4.6,1.7h2v1.2h-33.7v-1.2h1.9c1.8,0,3.4-0.6,4.7-1.7
			c1.3-1.2,1.9-2.6,1.9-4.4v-53c0-4.8-0.3-8.8-1-11.9l-0.2-1.7l1.1,0.1l55.2,48.5v-39.6c0-1.8-0.6-3.2-1.9-4.4
			c-1.2-1.2-2.8-1.7-4.6-1.7h-2V282.9z"/>
		<path fill="#FFFFFF" d="M240.7,346.6c-7.7-6.6-11.6-15.8-11.6-27.6s3.8-21,11.5-27.7c7.7-6.7,18.3-10,31.9-10
			c10.6,0,19.6,1.8,27.1,5.5V306h-0.8c-2-7.1-5.1-12.2-9.3-15.3c-4.2-3-9.4-4.6-15.8-4.6c-8.5,0-15,2.9-19.5,8.7
			c-4.5,5.8-6.7,13.8-6.7,23.9c0,10.1,2.2,18.1,6.6,24c4.6,6.1,10.8,9.2,18.7,9.2c5.7,0,10.4-0.9,14.1-2.7c3.7-1.8,6.6-4.6,8.8-8.5
			s3.8-9.2,4.8-15.8h0.8l1.4,18.2c-2.5,4.1-6.3,7.4-11.4,9.9c-5.1,2.5-11.4,3.7-18.8,3.7C259,356.6,248.4,353.3,240.7,346.6z"/>
		<path fill="#FFFFFF" d="M389,284.1h-1.6c-2.1,0-4.1,0.6-6,1.7c-1.9,1.1-3.4,2.5-4.6,4.2l-21.4,33v24.6c0.1,1.8,0.8,3.3,2,4.5
			c1.3,1.2,2.9,1.9,4.8,1.9h1.3v1.2h-33.7v-1.2h1.4c1.8,0,3.4-0.6,4.7-1.9c1.3-1.2,2-2.8,2.1-4.5V323l-21.3-33
			c-1.1-1.8-2.6-3.2-4.5-4.3c-1.9-1.1-3.9-1.6-6.1-1.6h-1.4v-1.2h36.6v1.2H340c-1.5,0-2.6,0.5-3.3,1.5c-0.7,1-1,1.8-1,2.5
			c0,0.7,0.2,1.3,0.5,1.9l16,27.7l16.3-27.7c0.2-0.6,0.4-1.2,0.4-1.9c0-0.7-0.3-1.5-1-2.5c-0.7-1-1.8-1.5-3.3-1.5h-1.2v-1.2H389
			V284.1z"/>
		<path fill="#FFFFFF" d="M396.3,346.6c-7.7-6.6-11.6-15.8-11.6-27.6s3.8-21,11.5-27.7c7.7-6.7,18.3-10,31.9-10
			c10.6,0,19.6,1.8,27.1,5.5V306h-0.8c-2-7.1-5.1-12.2-9.3-15.3c-4.2-3-9.4-4.6-15.8-4.6c-8.5,0-15,2.9-19.5,8.7
			c-4.5,5.8-6.7,13.8-6.7,23.9c0,10.1,2.2,18.1,6.6,24c4.6,6.1,10.8,9.2,18.7,9.2c5.7,0,10.4-0.9,14.1-2.7c3.7-1.8,6.6-4.6,8.8-8.5
			s3.8-9.2,4.8-15.8h0.8l1.4,18.2c-2.5,4.1-6.3,7.4-11.4,9.9c-5.1,2.5-11.4,3.7-18.8,3.7C414.7,356.6,404.1,353.3,396.3,346.6z"/>
		<path fill="#FFFFFF" d="M466.9,355.1v-1.2h1.4c1.8,0,3.4-0.6,4.6-1.8c1.2-1.2,1.9-2.7,1.9-4.5v-57.2c0-1.8-0.6-3.3-1.9-4.5
			c-1.3-1.2-2.8-1.9-4.6-1.9h-1.4v-1.2h33.5v1.2H499c-1.9,0-3.4,0.6-4.7,1.8c-1.3,1.2-1.9,2.7-1.9,4.6v59.9h14.5
			c5-0.1,9.2-1.6,12.7-4.6c3.5-3,6-7.2,7.6-12.7h1.3l-4.7,22.2H466.9z"/>
		<path fill="#FFFFFF" d="M534.3,319c0-11.6,3.9-20.7,11.6-27.5c7.7-6.8,18.1-10.2,30.9-10.2c12.9,0,23.2,3.4,31,10.2
			c7.8,6.8,11.7,16,11.7,27.5c0,11.6-3.9,20.7-11.7,27.5c-7.8,6.8-18.1,10.2-31,10.2c-12.9,0-23.2-3.4-31-10.2
			S534.3,330.6,534.3,319z M552.7,319c0,10.1,2.2,18.1,6.6,24c4.4,5.9,10.2,8.9,17.6,8.9c7.3,0,13.2-3,17.6-8.9
			c4.4-5.9,6.6-13.9,6.6-24c0-10.1-2.2-18.1-6.6-24c-4.4-5.9-10.2-8.9-17.6-8.9c-7.3,0-13.2,3-17.6,8.9
			C554.9,300.9,552.7,308.9,552.7,319z"/>
		<path fill="#FFFFFF" d="M687.1,315.3c-4,7-10.3,10.5-18.9,10.5c-4.3,0-8.5-1.4-12.7-4.2v-1c8,0,13.2-4.1,15.4-12.3
			c0.5-1.8,0.7-3.3,0.7-4.5c0-5.5-1.3-9.6-4-12.3c-2.6-2.6-6.2-4-10.6-4h-5.4v60c0.1,2.6,1.2,4.4,3.3,5.5c1,0.6,2,0.8,3.3,0.8h1.4
			v1.2h-33.2v-1.2h1.4c1.8,0,3.3-0.6,4.5-1.8s1.9-2.7,1.9-4.5v-57.2c0-1.8-0.6-3.4-1.9-4.6c-1.2-1.2-2.8-1.8-4.6-1.8h-1.4v-1.2h35.7
			c9.2,0,16.1,1.8,20.7,5.5c4.9,3.8,7.3,9,7.3,15.5C690,308.1,689,311.9,687.1,315.3z"/>
		<path fill="#FFFFFF" d="M753.5,355.1h-56.7v-1.2h1.4c1.9,0,3.4-0.6,4.6-1.8s1.9-2.7,2-4.5v-57.3c-0.1-1.8-0.7-3.3-2-4.5
			c-1.2-1.2-2.8-1.8-4.6-1.8h-1.4v-1.2h42.4c2.2,0,4.5-0.2,7.1-0.6c2.6-0.4,4.4-0.8,5.4-1.2v19.1h-1.2v-1.1c0-3.5-1-6.3-2.9-8.3
			c-1.9-2-4.6-3.1-8.1-3.1h-17.3v29.3h13.7c2.7-0.1,4.9-1,6.6-2.8c1.7-1.8,2.5-4,2.5-6.7v-0.8h1.2v25.5H745v-0.8
			c0-3.8-1.4-6.5-4.2-8.2c-1.4-0.9-3.1-1.3-4.8-1.3h-13.9v28.5h14.5c5-0.1,9.2-1.6,12.7-4.6c3.5-3,6-7.2,7.6-12.7h1.1L753.5,355.1z"
			/>
		<path fill="#FFFFFF" d="M835,292.4c7.3,6.4,11,15.2,11,26.6c0,11.3-3.7,20.2-11,26.6c-7.3,6.4-17.4,9.6-30.3,9.6H764v-1.2h1.6
			c1.9,0,3.4-0.6,4.7-1.9c1.3-1.3,2-2.8,2-4.6v-57.1c-0.2-1.8-0.9-3.3-2.2-4.5c-1.3-1.2-2.8-1.8-4.7-1.8H764v-1.2h40.7
			C817.6,282.9,827.7,286.1,835,292.4z M803.2,350.3c7.5,0,13.5-2.8,17.9-8.3c4.4-5.5,6.6-13.2,6.6-23c0-9.8-2.2-17.5-6.6-23.1
			c-4.4-5.6-10.3-8.4-17.9-8.4h-13.6v62.8H803.2z"/>
		<path fill="#FFFFFF" d="M852.7,353.9h1.4c1.9,0,3.6-0.6,4.9-1.9c1.4-1.2,2-2.8,2-4.5v-57.1c0-1.8-0.7-3.3-2-4.5
			c-1.4-1.2-3-1.9-4.9-1.9h-1.4v-1.2h34.2v1.2h-1.4c-1.9,0-3.5,0.6-4.8,1.8c-1.4,1.2-2.1,2.7-2.2,4.5v57.2c0.1,1.8,0.8,3.4,2.2,4.6
			c1.4,1.2,3,1.8,4.8,1.8h1.4v1.2h-34.2V353.9z"/>
		<path fill="#FFFFFF" d="M971.3,353.9h1v1.2h-35.4v-1.2h1c1.6,0,2.8-0.5,3.5-1.4c0.7-1,1.1-1.8,1.1-2.6c0-0.8-0.2-1.6-0.5-2.5
			l-4.7-11.1h-25.5l-4.8,11.2c-0.3,0.8-0.5,1.6-0.5,2.5c0,0.8,0.4,1.7,1.1,2.7c0.8,0.9,1.9,1.4,3.6,1.4h1v1.2h-24.1v-1.2h1
			c1.7,0,3.4-0.5,5.1-1.6c1.7-1,3.1-2.6,4.1-4.7l24.9-53.5c3.5-7.9,5.4-12.8,5.5-14.7h1.1l32.3,67.7c1,2.3,2.4,4,4.2,5.1
			C967.7,353.4,969.5,353.9,971.3,353.9z M913.7,331.5h21.4l-10.6-25.2L913.7,331.5z"/>
	</g>
	<g id="THS2y9_6_" display="inline">
		<g>
			<path fill="#FFFFFF" d="M493.6,186.9c-1-1.1-0.7-2.3-0.7-3.3c0-36.8,0-73.6,0-110.4c0-2.1,0.1-3.9,2-5.4c1.3-1,1.9-2.6,2.1-4.3
				c0.9-5.6,4.2-9.7,8.6-13.1c6.4-5,13.6-8.8,21-12.1c16.9-7.6,34.1-13.8,52.6-15.8c8.8-1,17.7-1.4,26.5-2.9c11.2-2,22-5.3,32.5-9.5
				c2.4-0.9,3.5-0.7,4.4,1.9c10.4,30.3,20.9,60.6,31.4,90.8c0.9,2.7,1.8,5.4,2.8,8c0.6,1.6,0.4,2.6-1.4,3.3
				c-15.9,6.2-32,11.2-49,13.4c-13.5,1.7-27.2,1.9-40.6,4.9c-26.6,6-51.8,15.7-74.9,30.4c-3.4,2.2-6.5,4.8-9.3,7.8
				c-3.4,3.6-5.8,7.8-6.7,12.7C494.8,184.5,494.7,185.8,493.6,186.9z"/>
			<path fill="#FFFFFF" d="M488.2,185.3c-0.3-0.6-0.5-0.8-0.5-1.1c-1.9-11-9.7-17.6-18.4-22.9c-25.3-15.3-52.6-25.7-81.9-30.5
				c-11.4-1.9-22.9-2.1-34.3-3.7c-15.8-2.3-30.9-7.1-45.7-12.9c-2-0.8-2.3-1.7-1.7-3.7c6.4-18.8,12.8-37.7,19.2-56.6
				c4.7-13.8,9.4-27.6,14-41.3c1.3-3.8,1.3-3.8,5.1-2.3c16.5,6.5,33.5,10.4,51.2,11.4c19.6,1.2,38.1,6.9,56,14.8
				c8.3,3.7,16.6,7.5,23.9,13c4.8,3.6,8.5,8,9.6,14.2c0.2,1.2,0.5,2.6,1.5,3.3c3,2.1,2.7,5.1,2.7,8.2c0,35.3,0,70.6,0,105.9
				C488.9,182.3,489.2,183.6,488.2,185.3z"/>
			<path fill="#FFFFFF" d="M523.8,174.3c6.3-3.3,13.1-5.3,19.9-7.3c14.7-4.3,29.5-7.7,44.7-9.3c10.6-1.1,21.2-0.8,31.8-0.2
				c21.6,1.2,42.7-1.4,63.6-7c2.5-0.7,3.5,0,3.7,2.6c0.5,5,1.1,10,1.8,15c0.4,2.8-0.6,4.1-3.4,4.2c-6.8,0.4-13.5,1.1-20.2,1.4
				c-17.8,0.8-35.2-2.3-52.6-5.2c-15-2.5-30.1-2.6-45.3-1.2C553,168.8,538.3,170.9,523.8,174.3z"/>
			<path fill="#FFFFFF" d="M458,174.3c-4.2-0.9-7.9-1.8-11.6-2.5c-19-3.7-38.1-5.8-57.5-5.2c-11.6,0.4-23.1,2.4-34.5,4.5
				c-17.4,3.1-34.9,3.6-52.5,1.7c-2.1-0.2-4.2-0.6-6.3-0.6c-2.3,0-2.7-1.2-2.5-3.1c0.7-5.5,1.4-11,2.1-16.5c0.3-2.3,1.5-2.5,3.4-2
				c10.8,2.8,21.6,5,32.7,6.2c11.8,1.3,23.6,1.2,35.4,0.6c13.6-0.7,27.1-0.1,40.4,2.2c15.9,2.8,31.6,6.9,46.8,12.4
				C455.3,172.4,456.7,172.5,458,174.3z"/>
			<path fill="#FFFFFF" d="M523.5,164.9c2.8-2.4,6.1-3.8,9.4-5.3c18.1-8.4,36.7-15.5,56.4-19.3c8.9-1.7,18-2.5,27.1-3.2
				c19.9-1.5,39-6.5,57.6-13.7c6.9-2.7,7-2.7,9.2,4.4c1.1,3.6,1.7,7.3,2.6,10.9c0.5,2-0.1,3-2.1,3.5c-10.1,2.6-20.3,4.7-30.6,6
				c-10.5,1.4-21.2,1.8-31.8,1.1c-7.4-0.5-14.7-0.5-22.1-0.4c-17.3,0.3-34.1,3.8-50.7,8.3C540,159.4,531.8,162,523.5,164.9z"/>
			<path fill="#FFFFFF" d="M459.2,165.2c-11.6-4.5-22.9-7.6-34.2-10.5c-20.4-5.3-41.2-7.1-62.2-5.7c-21.3,1.4-42.1-1.6-62.7-6.6
				c-2.9-0.7-3.7-1.8-3-4.8c1.1-4.4,2.1-8.8,3.8-13.1c1.1-2.7,2.3-3.4,5.2-2.2c14.9,6,30.2,10.7,46.2,13.1
				c8.1,1.2,16.2,1.9,24.4,2.6c18.3,1.5,35.7,6.3,52.8,12.9c8.9,3.4,17.6,7.1,26.1,11.5C456.8,163,458.1,163.3,459.2,165.2z"/>
			<path fill="#FFFFFF" d="M452.8,181.6c-3.8,1-7.4,0.1-11.1-0.1c-11-0.6-22-0.6-33,0c-13.2,0.7-26.1,2.5-38.8,6
				c-9.7,2.7-19.3,5.9-29.1,8.3c-15.3,3.9-31,5.3-46.8,5.2c-2.2,0-3-0.7-2.8-3c0.5-4.7,0.7-9.5,0.9-14.2c0.1-2.6,0.9-3.7,3.9-3.3
				c10.9,1.4,21.9,1.5,33,1.5c12.8-0.1,25.3-2.5,37.8-4.6c15.4-2.6,30.9-3.2,46.4-1.7c12,1.1,23.9,2.6,35.6,5
				C450.1,180.9,451.5,181.3,452.8,181.6z"/>
			<path fill="#FFFFFF" d="M529.9,182.4c3-1.9,6.4-2.2,9.7-2.8c19.2-3.6,38.6-5.3,58.2-4.3c10.5,0.5,20.8,2.7,31.2,4.4
				c16.2,2.7,32.5,3.4,48.9,1.7c3.2-0.3,6.4-0.5,9.7-0.8c2-0.2,2.7,0.7,2.9,2.5c0.3,5.4,0.7,10.9,1,16.3c0.1,1.7-0.9,2.1-2.3,2
				c-20.8-0.5-41.3-2.7-61.2-9.3c-14.1-4.7-28.5-8.5-43.4-9.8c-16.1-1.4-32.3-2-48.4-0.4C534.1,182.2,532,182.3,529.9,182.4z"/>
		</g>
	</g>
</g>
<g id="ES">
	<g>
		<path fill="#FFFFFF" d="M65,356.8c2.1,0,3.9-0.7,5.4-2.3c1.5-1.5,2.3-3.3,2.4-5.4v-68.2c-0.2-2.1-0.8-3.7-1.8-4.6
			c-2-1.8-4-2.7-6-2.7h-1.6v-1.2h46.9c4,0,7.3-0.3,9.9-0.9c2.6-0.6,4.2-1,4.8-1.3v21.4l-1.2-0.1v-1.3c0-5.1-1.9-8.6-5.6-10.8
			c-1.8-1.1-3.9-1.6-6.4-1.7H91.2v35.6h16.2c3-0.1,5.5-1.1,7.5-3.1c2-2,2.9-4.5,2.9-7.4v-1.1h1.2v28.3h-1.2v-1c0-3-1-5.5-2.9-7.5
			c-1.9-2-4.3-3-7.3-3.1H91.2v34.4h16c6,0,10.9-1.7,15-5.1c4-3.4,7-8.3,9-14.6h1.2l-5.6,25H63.5v-1.2H65z"/>
		<path fill="#FFFFFF" d="M194,284.6h34.4v1.2h-2.1c-1.9,0-3.4,0.6-4.7,1.7c-1.3,1.1-1.9,2.6-2,4.4v53.5c0,5.1,0.3,9.2,1,12.5
			l0.2,1.7h-1.1l-56.2-49.6v40.5c0.1,1.8,0.8,3.3,2,4.5s2.8,1.8,4.7,1.8h2.1v1.2h-34.3v-1.2h2c1.9,0,3.5-0.6,4.8-1.8
			c1.3-1.2,2-2.7,2-4.5v-53.8c0-4.9-0.3-8.9-1-12.1l-0.2-1.7l1.1,0.1l56,49.3v-40.3c0-1.8-0.6-3.3-1.9-4.5s-2.8-1.8-4.7-1.8H194
			V284.6z"/>
		<path fill="#FFFFFF" d="M245.8,349.4c-7.8-6.7-11.8-16.1-11.8-28.1s3.9-21.4,11.7-28.1c7.8-6.8,18.6-10.2,32.4-10.2
			c10.8,0,19.9,1.9,27.5,5.6v19.5h-0.9c-2-7.3-5.2-12.4-9.4-15.5c-4.2-3.1-9.6-4.6-16-4.6c-8.6,0-15.3,3-19.8,8.9s-6.8,14-6.8,24.2
			c0,10.2,2.2,18.4,6.7,24.4c4.6,6.2,11,9.3,19,9.3c5.8,0,10.6-0.9,14.3-2.7c3.8-1.8,6.7-4.7,8.9-8.6c2.2-4,3.8-9.3,4.9-16.1h0.9
			l1.5,18.5c-2.5,4.2-6.4,7.5-11.6,10c-5.2,2.5-11.6,3.8-19.2,3.8C264.4,359.5,253.6,356.1,245.8,349.4z"/>
		<path fill="#FFFFFF" d="M317.5,356.8h1.5c2,0,3.6-0.6,5-1.9c1.4-1.3,2.1-2.8,2.1-4.6v-58c0-1.8-0.7-3.3-2.1-4.6
			c-1.4-1.3-3.1-1.9-5-1.9h-1.5v-1.2h34.8v1.2h-1.5c-1.9,0-3.5,0.6-4.9,1.8c-1.4,1.2-2.1,2.7-2.2,4.5v58.1c0.1,1.9,0.8,3.4,2.2,4.6
			c1.4,1.2,3,1.8,4.9,1.8h1.5v1.2h-34.8V356.8z"/>
		<path fill="#FFFFFF" d="M371.2,349.4c-7.8-6.7-11.8-16.1-11.8-28.1s3.9-21.4,11.7-28.1c7.8-6.8,18.6-10.2,32.4-10.2
			c10.8,0,19.9,1.9,27.5,5.6v19.5h-0.9c-2-7.3-5.2-12.4-9.4-15.5c-4.2-3.1-9.6-4.6-16-4.6c-8.6,0-15.3,3-19.8,8.9s-6.8,14-6.8,24.2
			c0,10.2,2.2,18.4,6.7,24.4c4.6,6.2,11,9.3,19,9.3c5.8,0,10.6-0.9,14.3-2.7c3.8-1.8,6.7-4.7,8.9-8.6c2.2-4,3.8-9.3,4.9-16.1h0.9
			l1.5,18.5c-2.5,4.2-6.4,7.5-11.6,10c-5.2,2.5-11.6,3.8-19.2,3.8C389.8,359.5,379.1,356.1,371.2,349.4z"/>
		<path fill="#FFFFFF" d="M442.9,358v-1.2h1.5c1.9,0,3.4-0.6,4.7-1.8c1.3-1.2,1.9-2.7,1.9-4.5v-58.1c0-1.8-0.7-3.3-2-4.6
			c-1.3-1.3-2.9-1.9-4.7-1.9h-1.5v-1.2h34v1.2h-1.5c-1.9,0-3.5,0.6-4.8,1.8c-1.3,1.2-2,2.8-2,4.7v60.8h14.7
			c5.1-0.1,9.3-1.7,12.9-4.7c3.5-3.1,6.1-7.4,7.7-12.9h1.3l-4.8,22.5H442.9z"/>
		<path fill="#FFFFFF" d="M511.4,321.3c0-11.8,3.9-21.1,11.8-28c7.9-6.9,18.4-10.3,31.4-10.3c13.1,0,23.6,3.5,31.5,10.3
			c7.9,6.9,11.9,16.2,11.9,28s-4,21.1-11.9,28c-7.9,6.9-18.4,10.3-31.5,10.3c-13.1,0-23.5-3.4-31.5-10.3
			C515.3,342.4,511.4,333.1,511.4,321.3z M530.1,321.3c0,10.3,2.2,18.4,6.7,24.4s10.4,9,17.9,9c7.5,0,13.4-3,17.9-9
			c4.4-6,6.7-14.1,6.7-24.4s-2.2-18.4-6.7-24.4c-4.4-6-10.4-9-17.9-9c-7.5,0-13.4,3-17.9,9S530.1,311,530.1,321.3z"/>
		<path fill="#FFFFFF" d="M666.6,317.5c-4.1,7.1-10.5,10.6-19.2,10.6c-4.3,0-8.6-1.4-12.9-4.3v-1c8.2,0,13.4-4.2,15.7-12.5
			c0.5-1.9,0.7-3.4,0.7-4.5c0-5.6-1.4-9.8-4-12.5c-2.7-2.7-6.3-4-10.8-4h-5.5v61c0.1,2.6,1.2,4.5,3.3,5.6c1,0.6,2.1,0.9,3.3,0.9h1.5
			v1.2H605v-1.2h1.5c1.8,0,3.3-0.6,4.6-1.8c1.3-1.2,1.9-2.7,1.9-4.5v-58.1c0-1.9-0.6-3.4-1.9-4.7c-1.3-1.2-2.8-1.8-4.7-1.8h-1.5
			v-1.2h36.2c9.4,0,16.4,1.9,21,5.6c5,3.8,7.5,9.1,7.5,15.8C669.6,310.3,668.6,314.1,666.6,317.5z"/>
		<path fill="#FFFFFF" d="M734.1,358h-57.6v-1.2h1.5c1.9,0,3.4-0.6,4.7-1.8c1.3-1.2,1.9-2.7,2-4.5v-58.3c-0.1-1.8-0.8-3.3-2-4.5
			c-1.3-1.2-2.8-1.8-4.7-1.8h-1.5v-1.2h43.1c2.2,0,4.6-0.2,7.2-0.6c2.6-0.4,4.4-0.8,5.5-1.2v19.5H731v-1.1c0-3.6-1-6.4-2.9-8.4
			c-2-2-4.7-3.1-8.2-3.2h-17.6v29.7h14c2.8-0.1,5-1,6.7-2.8c1.7-1.8,2.6-4.1,2.6-6.9v-0.9h1.2v25.9h-1.2v-0.9c0-3.8-1.4-6.6-4.3-8.3
			c-1.5-0.9-3.1-1.3-4.9-1.3h-14.1v29H717c5.1-0.1,9.4-1.7,12.9-4.7c3.5-3.1,6.1-7.4,7.8-12.9h1.1L734.1,358z"/>
		<path fill="#FFFFFF" d="M816.9,294.3c7.4,6.5,11.1,15.5,11.1,27c0,11.5-3.7,20.5-11.1,27c-7.4,6.5-17.7,9.7-30.8,9.7h-41.4v-1.2
			h1.6c1.9,0,3.5-0.7,4.8-2c1.3-1.3,2-2.9,2.1-4.7v-58c-0.2-1.8-0.9-3.3-2.2-4.5c-1.3-1.2-2.9-1.8-4.8-1.8h-1.5v-1.2h41.4
			C799.2,284.6,809.5,287.8,816.9,294.3z M784.6,353.1c7.7,0,13.7-2.8,18.2-8.4c4.4-5.6,6.7-13.4,6.7-23.4c0-10-2.2-17.8-6.7-23.4
			c-4.5-5.7-10.5-8.5-18.2-8.5h-13.8v63.8H784.6z"/>
		<path fill="#FFFFFF" d="M834.9,356.8h1.5c2,0,3.6-0.6,5-1.9c1.4-1.3,2.1-2.8,2.1-4.6v-58c0-1.8-0.7-3.3-2.1-4.6
			c-1.4-1.3-3.1-1.9-5-1.9h-1.5v-1.2h34.8v1.2h-1.5c-1.9,0-3.5,0.6-4.9,1.8c-1.4,1.2-2.1,2.7-2.2,4.5v58.1c0.1,1.9,0.8,3.4,2.2,4.6
			c1.4,1.2,3,1.8,4.9,1.8h1.5v1.2h-34.8V356.8z"/>
		<path fill="#FFFFFF" d="M955.3,356.8h1v1.2h-36v-1.2h1c1.6,0,2.8-0.5,3.5-1.5c0.7-1,1.1-1.9,1.1-2.7s-0.2-1.7-0.5-2.6l-4.8-11.3
			h-25.9l-4.9,11.4c-0.3,0.8-0.5,1.7-0.5,2.5c0,0.9,0.4,1.8,1.2,2.7c0.8,0.9,2,1.4,3.6,1.4h1v1.2h-24.5v-1.2h1
			c1.7,0,3.4-0.5,5.1-1.6c1.7-1.1,3.1-2.7,4.2-4.8l25.3-54.3c3.6-8.1,5.5-13.1,5.6-14.9h1.1l32.8,68.8c1.1,2.4,2.5,4.1,4.2,5.2
			C951.8,356.3,953.5,356.8,955.3,356.8z M896.8,334.1h21.8l-10.8-25.6L896.8,334.1z"/>
	</g>
	<g id="THS2y9_3_">
		<g>
			<path fill="#FFFFFF" d="M502.7,187.1c-1-1.2-0.7-2.3-0.7-3.4c0-37.4,0-74.8,0-112.2c0-2.1,0.1-4,2.1-5.5c1.3-1,1.9-2.7,2.2-4.3
				c0.9-5.7,4.3-9.9,8.7-13.3c6.5-5.1,13.8-8.9,21.3-12.3c17.1-7.7,34.6-14,53.4-16.1c9-1,18-1.4,26.9-3c11.4-2,22.3-5.4,33.1-9.6
				c2.4-1,3.5-0.7,4.5,2c10.6,30.8,21.3,61.5,31.9,92.3c0.9,2.7,1.9,5.4,2.9,8.1c0.6,1.6,0.4,2.7-1.4,3.4
				c-16.1,6.3-32.5,11.4-49.8,13.6c-13.7,1.8-27.7,1.9-41.2,5c-27,6.1-52.6,15.9-76.1,30.9c-3.5,2.2-6.6,4.9-9.4,7.9
				c-3.4,3.7-5.8,7.9-6.8,12.9C503.9,184.7,503.9,186,502.7,187.1z"/>
			<path fill="#FFFFFF" d="M497.2,185.5c-0.3-0.6-0.5-0.9-0.5-1.1c-1.9-11.2-9.8-17.9-18.7-23.3c-25.7-15.5-53.4-26.2-83.2-31
				c-11.5-1.9-23.3-2.1-34.9-3.8c-16-2.4-31.4-7.3-46.4-13.1c-2-0.8-2.4-1.8-1.7-3.7c6.5-19.1,13-38.3,19.5-57.5
				c4.7-14,9.5-28,14.3-42c1.3-3.9,1.4-3.9,5.2-2.4c16.7,6.6,34.1,10.5,52.1,11.6c19.9,1.2,38.7,7,56.8,15.1
				c8.5,3.7,16.8,7.6,24.3,13.2c4.9,3.7,8.7,8.1,9.8,14.4c0.2,1.2,0.5,2.6,1.5,3.3c3,2.1,2.8,5.2,2.8,8.3c0,35.9,0,71.7,0,107.6
				C497.9,182.4,498.2,183.8,497.2,185.5z"/>
			<path fill="#FFFFFF" d="M533.4,174.3c6.4-3.4,13.3-5.4,20.2-7.4c14.9-4.3,30-7.8,45.4-9.4c10.8-1.1,21.5-0.8,32.3-0.2
				c21.9,1.2,43.4-1.4,64.6-7.1c2.6-0.7,3.5,0,3.8,2.6c0.5,5.1,1.1,10.2,1.8,15.3c0.4,2.9-0.6,4.1-3.5,4.3
				c-6.9,0.4-13.7,1.1-20.6,1.4c-18.1,0.8-35.8-2.3-53.5-5.3c-15.3-2.5-30.6-2.7-46-1.2C563,168.8,548.1,170.8,533.4,174.3z"/>
			<path fill="#FFFFFF" d="M466.6,174.3c-4.3-0.9-8-1.8-11.8-2.6c-19.3-3.7-38.7-5.9-58.4-5.3c-11.8,0.4-23.4,2.5-35.1,4.5
				c-17.7,3.2-35.5,3.7-53.3,1.7c-2.1-0.2-4.3-0.6-6.4-0.6c-2.3,0-2.8-1.2-2.5-3.2c0.7-5.6,1.4-11.2,2.1-16.8c0.3-2.3,1.6-2.5,3.5-2
				c10.9,2.8,22,5.1,33.2,6.3c12,1.3,24,1.2,36,0.6c13.8-0.7,27.5-0.1,41.1,2.3c16.2,2.9,32.1,7.1,47.5,12.6
				C463.8,172.3,465.3,172.5,466.6,174.3z"/>
			<path fill="#FFFFFF" d="M533.1,164.8c2.9-2.4,6.2-3.9,9.5-5.4c18.4-8.5,37.2-15.8,57.3-19.6c9.1-1.7,18.3-2.6,27.5-3.3
				c20.3-1.5,39.6-6.6,58.5-13.9c7-2.7,7.1-2.8,9.3,4.4c1.1,3.6,1.7,7.4,2.7,11.1c0.5,2-0.1,3-2.1,3.5c-10.3,2.6-20.6,4.7-31.1,6.1
				c-10.7,1.4-21.5,1.8-32.3,1.1c-7.5-0.5-15-0.5-22.5-0.4c-17.6,0.3-34.6,3.9-51.5,8.4C549.9,159.2,541.5,161.8,533.1,164.8z"/>
			<path fill="#FFFFFF" d="M467.8,165.1c-11.8-4.6-23.2-7.7-34.8-10.7c-20.8-5.4-41.9-7.2-63.2-5.8c-21.7,1.4-42.7-1.6-63.7-6.7
				c-2.9-0.7-3.8-1.9-3-4.9c1.2-4.5,2.2-9,3.9-13.3c1.1-2.8,2.4-3.5,5.3-2.3c15.2,6.1,30.7,10.9,47,13.3c8.2,1.2,16.5,1.9,24.8,2.6
				c18.6,1.5,36.3,6.4,53.6,13.1c9,3.5,17.9,7.3,26.5,11.6C465.3,162.8,466.6,163.2,467.8,165.1z"/>
			<path fill="#FFFFFF" d="M461.2,181.7c-3.8,1-7.5,0.1-11.3-0.1c-11.2-0.6-22.3-0.6-33.5,0c-13.4,0.7-26.5,2.5-39.4,6.1
				c-9.9,2.8-19.6,6-29.6,8.5c-15.6,3.9-31.5,5.4-47.6,5.3c-2.3,0-3-0.7-2.8-3.1c0.5-4.8,0.7-9.6,0.9-14.4c0.1-2.6,1-3.8,3.9-3.4
				c11.1,1.4,22.3,1.5,33.5,1.5c13-0.1,25.7-2.5,38.4-4.7c15.7-2.7,31.3-3.3,47.2-1.8c12.2,1.1,24.3,2.7,36.2,5.1
				C458.6,181,459.9,181.4,461.2,181.7z"/>
			<path fill="#FFFFFF" d="M539.6,182.5c3.1-1.9,6.5-2.2,9.9-2.9c19.5-3.7,39.3-5.3,59.1-4.4c10.7,0.5,21.2,2.7,31.7,4.5
				c16.5,2.8,33,3.4,49.7,1.7c3.3-0.3,6.5-0.5,9.8-0.8c2-0.2,2.8,0.7,2.9,2.6c0.3,5.5,0.7,11.1,1,16.6c0.1,1.7-0.9,2.1-2.3,2.1
				c-21.1-0.5-42-2.7-62.2-9.4c-14.4-4.8-28.9-8.6-44-10c-16.4-1.5-32.8-2-49.2-0.4C543.8,182.4,541.7,182.4,539.6,182.5z"/>
		</g>
	</g>
</g>
<g id="FR" display="none">
	<g display="inline">
		<path fill="#FFFFFF" d="M66.4,354.8c2.1,0,3.9-0.8,5.4-2.2c1.5-1.5,2.3-3.3,2.4-5.4v-67.7c-0.2-2.1-0.8-3.7-1.8-4.6
			c-1.9-1.8-3.9-2.7-6-2.7h-1.6v-1.2h46.6c4,0,7.3-0.3,9.9-0.9c2.6-0.6,4.2-1,4.7-1.3V290l-1.2-0.1v-1.3c0-5-1.9-8.6-5.6-10.7
			c-1.8-1.1-3.9-1.6-6.3-1.7H92.4v35.4h16.1c3-0.1,5.5-1.1,7.4-3.1c1.9-2,2.9-4.4,2.9-7.4V300h1.2v28.1h-1.2v-1c0-3-0.9-5.5-2.9-7.4
			c-1.9-1.9-4.3-3-7.2-3H92.4v34.2h15.9c5.9,0,10.9-1.7,14.9-5.1c4-3.4,7-8.2,8.9-14.5h1.2l-5.6,24.8h-63v-1.2H66.4z"/>
		<path fill="#FFFFFF" d="M194.5,283.1h34.2v1.2h-2.1c-1.9,0-3.4,0.6-4.7,1.7c-1.3,1.1-1.9,2.6-2,4.4v53.1c0,5,0.3,9.2,1,12.4
			l0.2,1.7H220l-55.8-49.2v40.2c0.1,1.8,0.8,3.3,2,4.4c1.3,1.2,2.8,1.8,4.7,1.8h2.1v1.2h-34v-1.2h1.9c1.9,0,3.4-0.6,4.7-1.8
			c1.3-1.2,1.9-2.6,1.9-4.4v-53.5c0-4.9-0.3-8.9-1-12l-0.2-1.7l1.1,0.1l55.7,49v-40c0-1.8-0.6-3.3-1.9-4.4c-1.3-1.2-2.8-1.8-4.7-1.8
			h-2.1V283.1z"/>
		<path fill="#FFFFFF" d="M245.9,347.5c-7.8-6.7-11.7-16-11.7-27.9s3.9-21.2,11.6-28c7.7-6.7,18.5-10.1,32.2-10.1
			c10.7,0,19.8,1.9,27.3,5.6v19.3h-0.8c-2-7.2-5.1-12.4-9.4-15.4c-4.2-3.1-9.5-4.6-15.9-4.6c-8.6,0-15.2,2.9-19.7,8.8
			c-4.5,5.9-6.8,13.9-6.8,24.1c0,10.2,2.2,18.3,6.7,24.3c4.6,6.2,10.9,9.2,18.8,9.2c5.8,0,10.5-0.9,14.2-2.7
			c3.7-1.8,6.7-4.6,8.9-8.6c2.2-3.9,3.8-9.3,4.9-16h0.8l1.5,18.4c-2.5,4.1-6.3,7.5-11.5,10c-5.1,2.5-11.5,3.8-19,3.8
			C264.4,357.5,253.7,354.2,245.9,347.5z"/>
		<path fill="#FFFFFF" d="M395.6,284.3H394c-2.1,0-4.1,0.6-6,1.7c-1.9,1.1-3.5,2.6-4.7,4.3l-21.6,33.3v24.8c0.1,1.8,0.8,3.3,2.1,4.6
			c1.3,1.3,2.9,1.9,4.9,1.9h1.3v1.2h-34v-1.2h1.5c1.9,0,3.4-0.6,4.7-1.9c1.3-1.3,2-2.8,2.1-4.6v-24.8l-21.5-33.3
			c-1.1-1.8-2.6-3.2-4.6-4.3c-1.9-1.1-3.9-1.6-6.1-1.6h-1.5v-1.2h37v1.2h-1.3c-1.5,0-2.6,0.5-3.3,1.5c-0.7,1-1,1.9-1,2.6
			s0.2,1.3,0.5,1.9l16.2,28l16.4-28c0.2-0.6,0.4-1.2,0.4-1.9s-0.4-1.5-1-2.6s-1.8-1.5-3.3-1.5h-1.2v-1.2h26V284.3z"/>
		<path fill="#FFFFFF" d="M403,347.5c-7.8-6.7-11.7-16-11.7-27.9s3.9-21.2,11.6-28c7.7-6.7,18.5-10.1,32.2-10.1
			c10.7,0,19.8,1.9,27.4,5.6v19.3h-0.9c-2-7.2-5.1-12.4-9.4-15.4s-9.5-4.6-15.9-4.6c-8.6,0-15.2,2.9-19.7,8.8
			c-4.5,5.9-6.8,13.9-6.8,24.1c0,10.2,2.2,18.3,6.7,24.3c4.6,6.2,10.9,9.2,18.8,9.2c5.8,0,10.5-0.9,14.2-2.7
			c3.7-1.8,6.7-4.6,8.9-8.6c2.2-3.9,3.8-9.3,4.9-16h0.9l1.5,18.4c-2.5,4.1-6.3,7.5-11.5,10c-5.1,2.5-11.5,3.8-19,3.8
			C421.5,357.5,410.8,354.2,403,347.5z"/>
		<path fill="#FFFFFF" d="M474.2,356v-1.2h1.5c1.9,0,3.4-0.6,4.7-1.8c1.3-1.2,1.9-2.7,1.9-4.5v-57.7c0-1.8-0.6-3.3-1.9-4.6
			c-1.3-1.3-2.8-1.9-4.6-1.9h-1.5v-1.2H508v1.2h-1.5c-1.9,0-3.4,0.6-4.7,1.8c-1.3,1.2-1.9,2.8-1.9,4.6v60.4h14.6
			c5-0.1,9.3-1.6,12.8-4.7c3.5-3,6-7.3,7.7-12.8h1.3l-4.7,22.4H474.2z"/>
		<path fill="#FFFFFF" d="M542.2,319.6c0-11.7,3.9-20.9,11.7-27.8s18.2-10.3,31.2-10.3c13,0,23.4,3.4,31.3,10.3
			c7.9,6.8,11.8,16.1,11.8,27.8c0,11.7-3.9,20.9-11.8,27.8c-7.9,6.8-18.3,10.3-31.2,10.3c-13,0-23.4-3.4-31.2-10.3
			S542.2,331.2,542.2,319.6z M560.8,319.6c0,10.2,2.2,18.3,6.6,24.3c4.4,6,10.3,8.9,17.7,8.9c7.4,0,13.3-3,17.8-8.9
			c4.4-6,6.6-14,6.6-24.3s-2.2-18.3-6.6-24.3c-4.4-6-10.3-8.9-17.8-8.9c-7.4,0-13.3,3-17.7,8.9C563,301.3,560.8,309.4,560.8,319.6z"
			/>
		<path fill="#FFFFFF" d="M696.4,315.8c-4.1,7.1-10.4,10.6-19.1,10.6c-4.3,0-8.6-1.4-12.8-4.3v-1c8.1,0,13.3-4.1,15.6-12.4
			c0.5-1.9,0.7-3.4,0.7-4.5c0-5.6-1.3-9.7-4-12.4c-2.7-2.7-6.2-4-10.7-4h-5.5v60.5c0.1,2.6,1.2,4.5,3.3,5.6c1,0.6,2.1,0.9,3.3,0.9
			h1.5v1.2h-33.6v-1.2h1.5c1.8,0,3.3-0.6,4.6-1.8c1.3-1.2,1.9-2.7,1.9-4.5v-57.7c0-1.9-0.6-3.4-1.9-4.6c-1.3-1.2-2.8-1.8-4.7-1.8
			H635v-1.2h36c9.3,0,16.3,1.9,20.9,5.6c4.9,3.8,7.4,9,7.4,15.7C699.4,308.6,698.4,312.4,696.4,315.8z"/>
		<path fill="#FFFFFF" d="M763.4,356h-57.3v-1.2h1.5c1.9,0,3.4-0.6,4.7-1.8c1.3-1.2,1.9-2.7,2-4.5v-57.9c-0.1-1.8-0.7-3.3-2-4.5
			c-1.3-1.2-2.8-1.8-4.7-1.8h-1.5v-1.2H749c2.2,0,4.6-0.2,7.2-0.6c2.6-0.4,4.4-0.8,5.5-1.2v19.3h-1.2v-1.1c0-3.6-1-6.4-2.9-8.4
			c-1.9-2-4.7-3.1-8.1-3.2h-17.5v29.5h13.9c2.8-0.1,5-1,6.7-2.8c1.7-1.8,2.5-4.1,2.5-6.9V307h1.2v25.8h-1.2V332
			c0-3.8-1.4-6.6-4.2-8.3c-1.5-0.9-3.1-1.3-4.9-1.3h-14v28.8h14.6c5-0.1,9.3-1.6,12.8-4.7c3.5-3,6.1-7.3,7.7-12.8h1.1L763.4,356z
			 M736.2,275.6l-0.8-0.9c3.5-6,9.3-12.7,17.5-20.1c3.9,2.1,6.6,5.4,8.3,10C752.8,269.9,744.5,273.5,736.2,275.6z"/>
		<path fill="#FFFFFF" d="M845.7,292.8c7.4,6.4,11.1,15.4,11.1,26.8c0,11.4-3.7,20.4-11.1,26.8c-7.4,6.4-17.6,9.7-30.6,9.7H774v-1.2
			h1.6c1.9,0,3.4-0.6,4.7-1.9c1.3-1.3,2-2.8,2.1-4.6v-57.6c-0.2-1.8-0.9-3.3-2.2-4.5c-1.3-1.2-2.9-1.8-4.7-1.8H774v-1.2h41.1
			C828.1,283.1,838.4,286.3,845.7,292.8z M813.6,351.2c7.6,0,13.6-2.8,18.1-8.4c4.4-5.6,6.6-13.3,6.6-23.2c0-9.9-2.2-17.6-6.6-23.3
			c-4.4-5.6-10.4-8.4-18.1-8.4h-13.7v63.3H813.6z"/>
		<path fill="#FFFFFF" d="M863.6,354.8h1.5c1.9,0,3.6-0.6,5-1.9c1.4-1.3,2.1-2.8,2.1-4.6v-57.6c0-1.8-0.7-3.3-2.1-4.6
			c-1.4-1.3-3-1.9-5-1.9h-1.5v-1.2h34.5v1.2h-1.5c-1.9,0-3.5,0.6-4.9,1.8c-1.4,1.2-2.1,2.7-2.2,4.5v57.7c0.1,1.9,0.8,3.4,2.2,4.6
			c1.4,1.2,3,1.8,4.9,1.8h1.5v1.2h-34.5V354.8z"/>
		<path fill="#FFFFFF" d="M962.9,356h-57.3v-1.2h1.5c1.9,0,3.4-0.6,4.7-1.8c1.3-1.2,1.9-2.7,2-4.5v-57.9c-0.1-1.8-0.8-3.3-2-4.5
			c-1.3-1.2-2.8-1.8-4.7-1.8h-1.5v-1.2h42.8c2.2,0,4.6-0.2,7.2-0.6c2.6-0.4,4.4-0.8,5.5-1.2v19.3h-1.2v-1.1c0-3.6-1-6.4-2.9-8.4
			c-1.9-2-4.7-3.1-8.1-3.2h-17.5v29.5h13.9c2.8-0.1,5-1,6.7-2.8c1.7-1.8,2.6-4.1,2.6-6.8V307h1.2v25.8h-1.2V332
			c0-3.8-1.4-6.6-4.3-8.3c-1.5-0.9-3.1-1.3-4.9-1.3h-14v28.8h14.6c5-0.1,9.3-1.6,12.8-4.7c3.5-3,6.1-7.3,7.7-12.8h1.1L962.9,356z"/>
	</g>
	<g id="THS2y9_7_" display="inline">
		<g>
			<path fill="#FFFFFF" d="M501.1,186.2c-1-1.1-0.7-2.3-0.7-3.4c0-37.1,0-74.3,0-111.4c0-2.1,0.1-4,2-5.4c1.3-1,1.9-2.7,2.2-4.3
				c0.9-5.7,4.3-9.8,8.7-13.3c6.5-5.1,13.7-8.9,21.2-12.2c17-7.6,34.4-13.9,53.1-16c8.9-1,17.9-1.4,26.7-2.9
				c11.3-2,22.2-5.4,32.8-9.6c2.4-0.9,3.5-0.7,4.4,2c10.5,30.6,21.1,61.1,31.7,91.7c0.9,2.7,1.9,5.4,2.9,8.1
				c0.6,1.6,0.4,2.7-1.4,3.4c-16,6.3-32.3,11.4-49.4,13.6c-13.6,1.8-27.5,1.9-40.9,5c-26.9,6.1-52.3,15.8-75.6,30.7
				c-3.5,2.2-6.6,4.9-9.3,7.9c-3.4,3.7-5.8,7.9-6.8,12.8C502.4,183.9,502.3,185.1,501.1,186.2z"/>
			<path fill="#FFFFFF" d="M495.6,184.7c-0.3-0.6-0.5-0.9-0.5-1.1c-1.9-11.1-9.8-17.8-18.6-23.1c-25.6-15.4-53.1-26-82.6-30.8
				c-11.5-1.9-23.1-2.1-34.6-3.8c-15.9-2.3-31.2-7.2-46.1-13c-2-0.8-2.4-1.7-1.7-3.7c6.5-19,12.9-38.1,19.4-57.1
				c4.7-13.9,9.4-27.8,14.2-41.7c1.3-3.8,1.3-3.9,5.2-2.4c16.6,6.6,33.8,10.5,51.7,11.5c19.8,1.2,38.4,7,56.5,15
				c8.4,3.7,16.7,7.6,24.1,13.2c4.9,3.7,8.6,8.1,9.7,14.3c0.2,1.2,0.5,2.6,1.5,3.3c3,2.1,2.7,5.1,2.7,8.2c0,35.6,0,71.2,0,106.8
				C496.4,181.6,496.7,182.9,495.6,184.7z"/>
			<path fill="#FFFFFF" d="M531.7,173.5c6.4-3.3,13.2-5.4,20-7.3c14.8-4.3,29.8-7.8,45.1-9.4c10.7-1.1,21.4-0.8,32.1-0.2
				c21.8,1.2,43.1-1.4,64.2-7c2.6-0.7,3.5,0,3.7,2.6c0.5,5.1,1.1,10.1,1.8,15.2c0.4,2.8-0.6,4.1-3.4,4.2c-6.8,0.4-13.6,1.1-20.4,1.4
				c-18,0.8-35.5-2.3-53.1-5.2c-15.2-2.5-30.4-2.7-45.7-1.2C561,168,546.3,170.1,531.7,173.5z"/>
			<path fill="#FFFFFF" d="M465.2,173.5c-4.2-0.9-7.9-1.8-11.7-2.5c-19.2-3.7-38.5-5.9-58-5.3c-11.7,0.4-23.3,2.4-34.8,4.5
				c-17.6,3.1-35.2,3.7-53,1.7c-2.1-0.2-4.3-0.6-6.4-0.6c-2.3,0-2.7-1.2-2.5-3.1c0.7-5.6,1.4-11.1,2.1-16.7c0.3-2.3,1.5-2.5,3.5-2
				c10.9,2.8,21.8,5,33,6.3c11.9,1.3,23.8,1.2,35.7,0.6c13.7-0.7,27.3-0.1,40.8,2.3c16.1,2.8,31.8,7,47.2,12.6
				C462.4,171.6,463.9,171.8,465.2,173.5z"/>
			<path fill="#FFFFFF" d="M531.3,164c2.8-2.4,6.2-3.9,9.5-5.4c18.3-8.4,37-15.7,56.9-19.5c9-1.7,18.2-2.6,27.3-3.2
				c20.1-1.5,39.4-6.6,58.1-13.8c6.9-2.7,7-2.7,9.2,4.4c1.1,3.6,1.7,7.3,2.7,11c0.5,2-0.1,3-2.1,3.5c-10.2,2.6-20.5,4.7-30.9,6.1
				c-10.6,1.4-21.4,1.8-32.1,1.1c-7.4-0.5-14.9-0.5-22.3-0.4c-17.5,0.3-34.4,3.9-51.2,8.4C548,158.5,539.7,161.1,531.3,164z"/>
			<path fill="#FFFFFF" d="M466.4,164.4c-11.7-4.6-23.1-7.7-34.5-10.6c-20.6-5.3-41.6-7.1-62.8-5.7c-21.5,1.4-42.5-1.6-63.2-6.7
				c-2.9-0.7-3.8-1.9-3-4.9c1.1-4.4,2.1-8.9,3.8-13.2c1.1-2.7,2.3-3.4,5.3-2.3c15.1,6,30.5,10.8,46.7,13.3
				c8.2,1.2,16.4,1.9,24.6,2.6c18.5,1.5,36.1,6.4,53.2,13.1c8.9,3.5,17.8,7.2,26.3,11.6C464,162.1,465.3,162.5,466.4,164.4z"/>
			<path fill="#FFFFFF" d="M459.9,180.9c-3.8,1-7.5,0.1-11.2-0.1c-11.1-0.6-22.2-0.6-33.3,0c-13.3,0.7-26.4,2.5-39.2,6.1
				c-9.8,2.7-19.5,5.9-29.4,8.4c-15.5,3.9-31.3,5.3-47.3,5.3c-2.2,0-3-0.7-2.8-3.1c0.5-4.8,0.7-9.6,0.9-14.3c0.1-2.6,1-3.8,3.9-3.4
				c11,1.4,22.1,1.5,33.3,1.5c12.9-0.1,25.5-2.5,38.2-4.7c15.6-2.6,31.1-3.2,46.9-1.8c12.1,1.1,24.1,2.6,36,5.1
				C457.3,180.2,458.6,180.6,459.9,180.9z"/>
			<path fill="#FFFFFF" d="M537.7,181.7c3-1.9,6.5-2.2,9.8-2.8c19.4-3.6,39-5.3,58.7-4.4c10.6,0.5,21,2.7,31.5,4.5
				c16.4,2.8,32.8,3.4,49.3,1.7c3.2-0.3,6.5-0.5,9.7-0.8c2-0.2,2.8,0.7,2.9,2.6c0.3,5.5,0.7,11,1,16.5c0.1,1.7-0.9,2.1-2.3,2.1
				c-21-0.5-41.7-2.7-61.7-9.3c-14.3-4.7-28.7-8.6-43.8-9.9c-16.3-1.4-32.6-2-48.9-0.4C542,181.5,539.8,181.6,537.7,181.7z"/>
		</g>
	</g>
</g>
</svg>
