<svg xmlns="http://www.w3.org/2000/svg" xmlns:xlink="http://www.w3.org/1999/xlink" preserveAspectRatio="xMidYMid" width="10" height="10.97" viewBox="0 0 10 10.97">
  <path style="color:#7297a7;fill:#7297a7;" d="M9.781,6.006 C9.494,6.300 9.024,6.781 8.737,7.075 L5.127,10.747 C4.840,11.041 4.370,11.041 4.083,10.747 C3.796,10.453 3.796,9.972 4.083,9.678 L7.477,6.227 L0.748,6.226 C0.343,6.227 0.010,5.887 0.010,5.471 C0.011,5.056 0.343,4.716 0.748,4.715 L7.477,4.716 L4.084,1.265 C3.797,0.972 3.796,0.491 4.084,0.196 C4.371,-0.097 4.840,-0.097 5.127,0.197 L7.737,2.869 C8.024,3.163 9.494,4.644 9.781,4.937 C10.068,5.231 10.068,5.712 9.781,6.006 Z"/>
</svg>
