<svg xmlns="http://www.w3.org/2000/svg" xmlns:xlink="http://www.w3.org/1999/xlink" preserveAspectRatio="xMidYMid" width="10" height="10.97" viewBox="0 0 10 10.97">
  <path style="color:#044a80;fill:#044a80;" d="M4.084,0.196 C3.796,0.491 3.797,0.972 4.084,1.265 L7.477,4.716 L0.748,4.715 C0.343,4.716 0.011,5.056 0.010,5.471 C0.010,5.887 0.343,6.227 0.748,6.226 L7.477,6.227 L4.083,9.678 C3.796,9.972 3.796,10.453 4.083,10.747 C4.370,11.041 4.840,11.041 5.127,10.747 L8.737,7.075 C9.024,6.781 9.494,6.300 9.781,6.006 C10.068,5.712 10.068,5.231 9.781,4.937 C9.494,4.644 8.024,3.163 7.737,2.869 L5.127,0.197 C4.840,-0.097 4.371,-0.097 4.084,0.196 Z" class="cls-1"/>
</svg>
