<?xml version="1.0" encoding="utf-8"?>
<!-- Generator: Adobe Illustrator 18.1.1, SVG Export Plug-In . SVG Version: 6.00 Build 0)  -->
<svg version="1.1" id="Layer_1" xmlns="http://www.w3.org/2000/svg" xmlns:xlink="http://www.w3.org/1999/xlink" x="0px" y="0px"
	 viewBox="0 0 944.7 365.2" enable-background="new 0 0 944.7 365.2" xml:space="preserve">
<g>
	<path fill="#FFFFFF" d="M32.5,352.3c2.1,0,3.8-0.7,5.3-2.2c1.5-1.5,2.2-3.2,2.3-5.3v-66.2c-0.2-2.1-0.7-3.6-1.8-4.5
		c-1.9-1.7-3.8-2.6-5.8-2.6H31v-1.2h45.5c3.9,0,7.1-0.3,9.6-0.9c2.5-0.6,4.1-1,4.6-1.2V289l-1.2-0.1v-1.3c0-4.9-1.8-8.4-5.5-10.5
		c-1.7-1-3.8-1.6-6.2-1.7h-20V310h15.7c2.9-0.1,5.3-1.1,7.2-3c1.9-1.9,2.9-4.3,2.9-7.2v-1.1h1.2v27.4h-1.2v-0.9
		c0-2.9-0.9-5.4-2.8-7.2s-4.2-2.9-7.1-3H57.9v33.4h15.6c5.8,0,10.6-1.7,14.6-5c3.9-3.3,6.8-8,8.7-14.1H98l-5.5,24.2H31v-1.2H32.5z"
		/>
	<path fill="#FFFFFF" d="M157.7,282.2h33.4v1.2h-2c-1.8,0-3.4,0.6-4.6,1.7c-1.2,1.1-1.9,2.5-2,4.3v51.9c0,4.9,0.3,9,0.9,12.1
		l0.2,1.7h-1.1l-54.5-48.1v39.3c0.1,1.7,0.7,3.2,2,4.3c1.2,1.1,2.7,1.7,4.6,1.7h2v1.2h-33.3v-1.2h1.9c1.8,0,3.4-0.6,4.6-1.7
		c1.3-1.1,1.9-2.6,1.9-4.3v-52.3c0-4.8-0.3-8.7-0.9-11.8l-0.2-1.7l1.1,0.1l54.4,47.9v-39.1c0-1.7-0.6-3.2-1.8-4.3
		c-1.2-1.1-2.8-1.7-4.6-1.7h-2V282.2z"/>
	<path fill="#FFFFFF" d="M208,345.1c-7.6-6.5-11.4-15.6-11.4-27.3c0-11.6,3.8-20.7,11.4-27.3c7.6-6.6,18-9.9,31.4-9.9
		c10.5,0,19.4,1.8,26.7,5.5V305h-0.8c-2-7-5-12.1-9.1-15.1c-4.1-3-9.3-4.5-15.6-4.5c-8.4,0-14.8,2.9-19.3,8.6
		c-4.4,5.7-6.7,13.6-6.7,23.5s2.2,17.8,6.5,23.7c4.5,6,10.7,9,18.4,9c5.6,0,10.3-0.9,13.9-2.6c3.6-1.7,6.5-4.5,8.7-8.4
		c2.1-3.8,3.7-9,4.8-15.6h0.8l1.4,17.9c-2.5,4-6.2,7.3-11.2,9.7c-5,2.5-11.2,3.7-18.6,3.7C226.1,354.9,215.6,351.6,208,345.1z"/>
	<path fill="#FFFFFF" d="M354.3,283.4h-1.5c-2.1,0-4,0.6-5.9,1.7c-1.9,1.1-3.4,2.5-4.6,4.2l-21.1,32.6V346c0.1,1.7,0.7,3.2,2,4.5
		c1.3,1.2,2.9,1.8,4.8,1.8h1.3v1.2h-33.3v-1.2h1.4c1.8,0,3.4-0.6,4.6-1.8c1.3-1.2,1.9-2.7,2-4.5v-24.2l-21-32.6
		c-1.1-1.7-2.6-3.1-4.5-4.2c-1.9-1.1-3.9-1.6-6-1.6h-1.4v-1.2h36.1v1.2h-1.3c-1.5,0-2.6,0.5-3.3,1.5c-0.7,1-1,1.8-1,2.5
		c0,0.7,0.2,1.3,0.5,1.8l15.8,27.3l16-27.3c0.2-0.6,0.4-1.2,0.4-1.8c0-0.7-0.3-1.5-1-2.5c-0.7-1-1.8-1.5-3.3-1.5h-1.2v-1.2h25.4
		V283.4z"/>
	<path fill="#FFFFFF" d="M361.5,345.1c-7.6-6.5-11.4-15.6-11.4-27.3c0-11.6,3.8-20.7,11.3-27.3c7.6-6.6,18-9.9,31.4-9.9
		c10.5,0,19.4,1.8,26.7,5.5V305h-0.8c-2-7-5-12.1-9.1-15.1c-4.1-3-9.3-4.5-15.6-4.5c-8.4,0-14.8,2.9-19.3,8.6
		c-4.4,5.7-6.7,13.6-6.7,23.5s2.2,17.8,6.5,23.7c4.5,6,10.7,9,18.4,9c5.6,0,10.3-0.9,13.9-2.6c3.6-1.7,6.5-4.5,8.7-8.4
		c2.1-3.8,3.7-9,4.8-15.6h0.8l1.4,17.9c-2.5,4-6.2,7.3-11.2,9.7c-5,2.5-11.2,3.7-18.6,3.7C379.6,354.9,369.1,351.6,361.5,345.1z"/>
	<path fill="#FFFFFF" d="M431.2,353.5v-1.2h1.4c1.8,0,3.3-0.6,4.6-1.8c1.2-1.2,1.8-2.7,1.8-4.4v-56.4c0-1.7-0.6-3.2-1.9-4.5
		c-1.3-1.2-2.8-1.8-4.5-1.8h-1.4v-1.2h33v1.2h-1.4c-1.8,0-3.4,0.6-4.6,1.8c-1.3,1.2-1.9,2.7-1.9,4.5v59.1h14.3
		c4.9-0.1,9.1-1.6,12.5-4.6c3.4-3,5.9-7.1,7.5-12.5h1.3l-4.6,21.9H431.2z"/>
	<path fill="#FFFFFF" d="M497.6,317.8c0-11.4,3.8-20.5,11.5-27.2c7.6-6.7,17.8-10,30.5-10c12.7,0,22.9,3.3,30.6,10
		c7.7,6.7,11.5,15.7,11.5,27.2c0,11.4-3.8,20.5-11.5,27.2c-7.7,6.7-17.9,10-30.5,10c-12.7,0-22.9-3.3-30.5-10
		C501.4,338.3,497.6,329.2,497.6,317.8z M515.8,317.8c0,10,2.2,17.9,6.5,23.7c4.3,5.8,10.1,8.7,17.3,8.7c7.2,0,13-2.9,17.4-8.7
		c4.3-5.8,6.5-13.7,6.5-23.7s-2.2-17.9-6.5-23.7s-10.1-8.7-17.4-8.7c-7.2,0-13,2.9-17.3,8.7C517.9,299.9,515.8,307.8,515.8,317.8z"
		/>
	<path fill="#FFFFFF" d="M648.4,314.1c-4,6.9-10.2,10.3-18.7,10.3c-4.2,0-8.4-1.4-12.5-4.2v-0.9c7.9,0,13-4,15.2-12.1
		c0.5-1.8,0.7-3.3,0.7-4.4c0-5.5-1.3-9.5-3.9-12.1c-2.6-2.6-6.1-3.9-10.5-3.9h-5.4V346c0.1,2.5,1.2,4.4,3.2,5.5c1,0.6,2,0.8,3.2,0.8
		h1.4v1.2h-32.8v-1.2h1.4c1.7,0,3.2-0.6,4.5-1.8c1.2-1.2,1.8-2.7,1.8-4.4v-56.4c0-1.8-0.6-3.3-1.8-4.5c-1.2-1.2-2.8-1.8-4.6-1.8
		h-1.4v-1.2h35.2c9.1,0,15.9,1.8,20.4,5.5c4.8,3.7,7.2,8.8,7.2,15.3C651.2,307.1,650.3,310.8,648.4,314.1z"/>
	<path fill="#FFFFFF" d="M713.8,353.5h-56v-1.2h1.4c1.8,0,3.4-0.6,4.6-1.8c1.2-1.2,1.9-2.7,2-4.4v-56.6c-0.1-1.7-0.7-3.2-2-4.4
		c-1.2-1.2-2.8-1.8-4.6-1.8h-1.4v-1.2h41.8c2.1,0,4.5-0.2,7-0.6c2.5-0.4,4.3-0.8,5.3-1.2v18.9h-1.2v-1.1c0-3.5-1-6.2-2.9-8.2
		c-1.9-2-4.6-3-8-3.1h-17.1v28.9h13.6c2.7-0.1,4.9-1,6.5-2.7c1.7-1.7,2.5-4,2.5-6.8v-0.7h1.2v25.2h-1.2v-0.8c0-3.7-1.4-6.4-4.2-8.1
		c-1.4-0.9-3-1.3-4.8-1.3h-13.7v28.2h14.3c4.9-0.1,9.1-1.6,12.5-4.6c3.4-3,6-7.1,7.5-12.5h1.1L713.8,353.5z M687.2,274.8l-0.8-0.8
		c3.4-5.9,9.1-12.4,17.1-19.6c3.8,2.1,6.5,5.3,8.1,9.7C703.4,269.3,695.3,272.8,687.2,274.8z"/>
	<path fill="#FFFFFF" d="M794.3,291.6c7.2,6.3,10.8,15,10.8,26.2c0,11.2-3.6,19.9-10.8,26.2c-7.2,6.3-17.2,9.4-29.9,9.4h-40.2v-1.2
		h1.5c1.8,0,3.4-0.6,4.6-1.9c1.3-1.3,1.9-2.8,2-4.5v-56.3c-0.2-1.7-0.9-3.2-2.1-4.4c-1.3-1.2-2.8-1.8-4.6-1.8h-1.4v-1.2h40.2
		C777.1,282.2,787.1,285.3,794.3,291.6z M762.9,348.7c7.4,0,13.3-2.7,17.6-8.2s6.5-13,6.5-22.7c0-9.7-2.2-17.2-6.5-22.8
		c-4.3-5.5-10.2-8.3-17.6-8.3h-13.4v61.9H762.9z"/>
	<path fill="#FFFFFF" d="M811.8,352.3h1.4c1.9,0,3.5-0.6,4.9-1.8c1.3-1.2,2-2.7,2-4.5v-56.3c0-1.7-0.7-3.2-2-4.5
		c-1.3-1.2-3-1.8-4.9-1.8h-1.4v-1.2h33.8v1.2h-1.4c-1.8,0-3.4,0.6-4.8,1.8c-1.3,1.2-2.1,2.7-2.1,4.4V346c0.1,1.8,0.8,3.3,2.1,4.5
		c1.3,1.2,2.9,1.8,4.8,1.8h1.4v1.2h-33.8V352.3z"/>
	<path fill="#FFFFFF" d="M908.8,353.5h-56v-1.2h1.4c1.8,0,3.3-0.6,4.6-1.8c1.2-1.2,1.9-2.7,2-4.4v-56.6c-0.1-1.7-0.7-3.2-2-4.4
		c-1.2-1.2-2.7-1.8-4.6-1.8h-1.4v-1.2h41.8c2.1,0,4.5-0.2,7-0.6c2.5-0.4,4.3-0.8,5.4-1.2v18.9h-1.2v-1.1c0-3.5-0.9-6.2-2.8-8.2
		c-1.9-2-4.6-3-8-3.1h-17.1v28.9h13.5c2.7-0.1,4.9-1,6.5-2.7c1.7-1.7,2.5-4,2.5-6.7v-0.8h1.2v25.2h-1.2v-0.8c0-3.7-1.4-6.4-4.2-8.1
		c-1.4-0.9-3-1.3-4.8-1.3h-13.7v28.2h14.3c4.9-0.1,9.1-1.6,12.5-4.6c3.4-3,6-7.1,7.5-12.5h1.1L908.8,353.5z"/>
</g>
<g id="THS2y9_7_">
	<g>
		<path fill="#FFFFFF" d="M457.4,187.5c-1-1.1-0.6-2.3-0.6-3.3c0-36.3,0-72.6,0-108.9c0-2.1,0.1-3.9,2-5.3c1.3-1,1.9-2.6,2.1-4.2
			c0.9-5.6,4.2-9.6,8.5-13c6.3-5,13.4-8.7,20.7-11.9c16.6-7.5,33.6-13.6,51.9-15.6c8.7-1,17.5-1.4,26.1-2.9
			c11-1.9,21.7-5.2,32.1-9.3c2.3-0.9,3.4-0.7,4.3,1.9c10.3,29.9,20.6,59.7,31,89.6c0.9,2.6,1.8,5.3,2.8,7.9c0.6,1.6,0.4,2.6-1.4,3.3
			c-15.6,6.1-31.6,11.1-48.3,13.3c-13.3,1.7-26.9,1.9-40,4.9c-26.3,6-51.1,15.4-73.9,30c-3.4,2.1-6.4,4.8-9.1,7.7
			c-3.3,3.6-5.7,7.7-6.6,12.5C458.7,185.2,458.6,186.4,457.4,187.5z"/>
		<path fill="#FFFFFF" d="M452.1,186c-0.3-0.6-0.4-0.8-0.5-1.1c-1.9-10.9-9.6-17.4-18.2-22.6c-25-15.1-51.9-25.4-80.8-30.1
			c-11.2-1.8-22.6-2-33.8-3.7c-15.6-2.3-30.5-7-45.1-12.7c-1.9-0.7-2.3-1.7-1.7-3.6c6.3-18.6,12.6-37.2,18.9-55.8
			c4.6-13.6,9.2-27.2,13.8-40.8c1.3-3.8,1.3-3.8,5-2.3c16.2,6.5,33.1,10.2,50.5,11.3c19.4,1.2,37.6,6.8,55.2,14.6
			c8.2,3.6,16.3,7.4,23.6,12.9c4.8,3.6,8.4,7.9,9.5,14c0.2,1.2,0.5,2.5,1.5,3.2c2.9,2.1,2.7,5,2.7,8.1c0,34.8,0,69.6,0,104.4
			C452.8,183,453.1,184.3,452.1,186z"/>
		<path fill="#FFFFFF" d="M487.3,175.1c6.2-3.3,12.9-5.2,19.6-7.2c14.5-4.2,29.1-7.6,44.1-9.1c10.4-1.1,20.9-0.8,31.3-0.2
			c21.3,1.1,42.2-1.4,62.7-6.9c2.5-0.7,3.4,0,3.7,2.5c0.5,5,1.1,9.9,1.8,14.8c0.4,2.8-0.5,4-3.4,4.2c-6.7,0.4-13.3,1.1-20,1.4
			c-17.6,0.7-34.7-2.2-51.9-5.1c-14.8-2.5-29.7-2.6-44.7-1.2C516,169.7,501.6,171.7,487.3,175.1z"/>
		<path fill="#FFFFFF" d="M422.4,175c-4.1-0.9-7.8-1.8-11.4-2.5c-18.7-3.6-37.6-5.8-56.7-5.2c-11.5,0.4-22.8,2.4-34,4.4
			c-17.2,3.1-34.4,3.6-51.8,1.6c-2.1-0.2-4.2-0.6-6.2-0.6c-2.3,0-2.7-1.2-2.4-3.1c0.7-5.4,1.4-10.9,2-16.3c0.3-2.2,1.5-2.4,3.4-2
			c10.6,2.7,21.3,4.9,32.3,6.1c11.6,1.3,23.3,1.2,34.9,0.5c13.4-0.7,26.7-0.1,39.9,2.2c15.7,2.8,31.1,6.8,46.2,12.3
			C419.6,173.2,421.1,173.4,422.4,175z"/>
		<path fill="#FFFFFF" d="M487,165.8c2.8-2.3,6-3.8,9.3-5.3c17.9-8.3,36.2-15.3,55.6-19c8.8-1.7,17.8-2.5,26.7-3.2
			c19.7-1.4,38.5-6.4,56.8-13.5c6.8-2.6,6.9-2.7,9,4.3c1.1,3.5,1.7,7.2,2.6,10.7c0.5,2-0.1,2.9-2,3.4c-10,2.5-20,4.6-30.2,5.9
			c-10.4,1.3-20.9,1.7-31.3,1.1c-7.3-0.4-14.6-0.5-21.8-0.4c-17.1,0.3-33.6,3.8-50,8.2C503.3,160.4,495.1,163,487,165.8z"/>
		<path fill="#FFFFFF" d="M423.6,166.1c-11.5-4.5-22.6-7.5-33.8-10.4c-20.2-5.2-40.7-7-61.3-5.6c-21,1.4-41.5-1.6-61.8-6.5
			c-2.9-0.7-3.7-1.8-2.9-4.7c1.1-4.3,2.1-8.7,3.7-12.9c1.1-2.7,2.3-3.4,5.2-2.2c14.7,5.9,29.8,10.6,45.6,13c8,1.2,16,1.9,24,2.5
			c18.1,1.5,35.3,6.2,52,12.8c8.7,3.4,17.4,7,25.7,11.3C421.1,163.9,422.4,164.3,423.6,166.1z"/>
		<path fill="#FFFFFF" d="M417.2,182.3c-3.7,1-7.3,0.1-10.9-0.1c-10.9-0.6-21.7-0.6-32.5,0c-13,0.7-25.8,2.4-38.3,5.9
			c-9.6,2.7-19.1,5.8-28.7,8.2c-15.1,3.8-30.6,5.2-46.2,5.2c-2.2,0-3-0.6-2.7-3c0.5-4.7,0.7-9.3,0.8-14c0.1-2.6,0.9-3.7,3.8-3.3
			c10.8,1.4,21.6,1.5,32.5,1.4c12.6-0.1,25-2.5,37.3-4.6c15.2-2.6,30.4-3.2,45.8-1.7c11.8,1.1,23.5,2.6,35.2,5
			C414.6,181.6,415.9,182,417.2,182.3z"/>
		<path fill="#FFFFFF" d="M493.2,183.1c3-1.9,6.3-2.2,9.6-2.8c19-3.6,38.1-5.2,57.4-4.3c10.4,0.5,20.5,2.6,30.8,4.4
			c16,2.7,32.1,3.3,48.2,1.7c3.2-0.3,6.4-0.5,9.5-0.8c2-0.2,2.7,0.7,2.8,2.5c0.3,5.4,0.6,10.7,1,16.1c0.1,1.7-0.9,2-2.3,2
			c-20.5-0.5-40.7-2.6-60.4-9.1c-13.9-4.6-28.1-8.4-42.8-9.7c-15.9-1.4-31.8-2-47.7-0.4C497.4,182.9,495.3,183,493.2,183.1z"/>
	</g>
</g>
</svg>
