<?xml version="1.0" encoding="UTF-8" standalone="no"?>
<!-- Created with Inkscape (http://www.inkscape.org/) -->

<svg
   xmlns:dc="http://purl.org/dc/elements/1.1/"
   xmlns:cc="http://creativecommons.org/ns#"
   xmlns:rdf="http://www.w3.org/1999/02/22-rdf-syntax-ns#"
   xmlns:svg="http://www.w3.org/2000/svg"
   xmlns="http://www.w3.org/2000/svg"
   xmlns:sodipodi="http://sodipodi.sourceforge.net/DTD/sodipodi-0.dtd"
   xmlns:inkscape="http://www.inkscape.org/namespaces/inkscape"
   width="128px"
   height="128px"
   viewBox="0 0 128 128"
   version="1.1"
   id="SVGRoot"
   inkscape:version="0.92.2 2405546, 2018-03-11"
   sodipodi:docname="icon.svg">
  <sodipodi:namedview
     id="base"
     pagecolor="#ffffff"
     bordercolor="#666666"
     borderopacity="1.0"
     inkscape:pageopacity="0.0"
     inkscape:pageshadow="2"
     inkscape:zoom="4"
     inkscape:cx="-59.905853"
     inkscape:cy="84"
     inkscape:document-units="px"
     inkscape:current-layer="layer1"
     showgrid="true"
     inkscape:window-width="3200"
     inkscape:window-height="1648"
     inkscape:window-x="0"
     inkscape:window-y="0"
     inkscape:window-maximized="1"
     inkscape:grid-bbox="true"
     showguides="false">
    <inkscape:grid
       type="xygrid"
       id="grid4620"
       spacingx="2"
       spacingy="2"
       empspacing="8" />
  </sodipodi:namedview>
  <defs
     id="defs10">
    <filter
       inkscape:menu-tooltip="Colorized mountain tops out of the fog"
       inkscape:menu="Overlays"
       inkscape:label="Scotland"
       style="color-interpolation-filters:sRGB;"
       id="filter4735">
      <feTurbulence
         baseFrequency="0.03 0.1"
         numOctaves="5"
         type="fractalNoise"
         result="result91"
         id="feTurbulence4717" />
      <feDisplacementMap
         scale="5"
         in2="result91"
         id="feDisplacementMap4719" />
      <feColorMatrix
         values="1 0 0 0 0 0 1 0 0 0 0 0 1 0 0 0 0 0 3 -1 "
         result="result5"
         id="feColorMatrix4721" />
      <feComposite
         in2="result5"
         operator="in"
         in="SourceGraphic"
         result="result6"
         id="feComposite4723" />
      <feTurbulence
         baseFrequency="0.03 0.1"
         numOctaves="5"
         type="fractalNoise"
         result="result92"
         id="feTurbulence4725" />
      <feDisplacementMap
         result="result4"
         scale="4"
         yChannelSelector="A"
         xChannelSelector="R"
         in="result6"
         in2="result92"
         id="feDisplacementMap4727" />
      <feComposite
         in2="result4"
         operator="in"
         result="result2"
         in="result4"
         id="feComposite4729" />
      <feComposite
         in2="result2"
         operator="over"
         in="result2"
         result="result93"
         id="feComposite4731" />
      <feBlend
         mode="multiply"
         in2="result93"
         id="feBlend4733" />
    </filter>
  </defs>
  <metadata
     id="metadata13">
    <rdf:RDF>
      <cc:Work
         rdf:about="">
        <dc:format>image/svg+xml</dc:format>
        <dc:type
           rdf:resource="http://purl.org/dc/dcmitype/StillImage" />
        <dc:title />
      </cc:Work>
    </rdf:RDF>
  </metadata>
  <g
     id="layer1"
     inkscape:groupmode="layer"
     inkscape:label="Layer 1">
    <rect
       style="opacity:1;fill:#ffffff;fill-opacity:1;stroke:none;stroke-width:4;stroke-miterlimit:4;stroke-dasharray:none;stroke-opacity:1"
       id="rect5421"
       width="128"
       height="128"
       x="0"
       y="0"
       rx="10"
       ry="10" />
    <path
       d="m 10.25,0.125 c -5.54,0 -10,4.6037382 -10,10.322283 V 71.483828 A 279.30719,288.30878 0 0 1 19.701172,66.975894 279.30719,288.30878 0 0 1 47.417969,63.50422 279.30719,288.30878 0 0 1 67.175781,62.780451 279.30719,288.30878 0 0 1 95.058594,64.221941 279.30719,288.30878 0 0 1 122.66406,68.528269 279.30719,288.30878 0 0 1 128.25,70 V 10.447283 C 128.25,4.7287382 123.79,0.125 118.25,0.125 Z"
       id="rect97"
       style="fill:#049bce;fill-opacity:1;stroke-width:1.01598632;filter:url(#filter4735)"
       inkscape:connector-curvature="0"
       transform="matrix(1,0,0,1.5677808,0,-0.0709726)" />
    <path
       style="fill:#94c487;fill-opacity:1;stroke:#bbea6c;stroke-width:4;stroke-miterlimit:4;stroke-dasharray:none;stroke-opacity:1"
       d="M 47.591797,63.519531 C 32.362774,65.297545 17.091995,66.833452 2.25,70.855469 2.6184151,87.497104 1.5456731,104.30739 2.7246094,120.85547 c 3.2522287,8.24838 13.9238706,4.45332 20.5781246,5.26953 32.432633,-0.24728 64.962044,0.4887 97.335936,-0.35742 8.28803,-2.74107 5.04604,-13.25269 5.61133,-19.69531 0,-12.233728 0,-24.467452 0,-36.701176 -25.79062,-5.537012 -52.320574,-7.388057 -78.658203,-5.851563 z"
       id="path102"
       inkscape:connector-curvature="0" />
    <g
       id="g4741"
       transform="translate(136,2)">
      <path
         id="path78"
         d="m -35.093,29.894 c -0.915,-0.249 -1.88,-0.522 -2.863,-0.794 0.115,-0.678 0.132,-1.424 -0.003,-2.202 -0.432,-2.481 -3.725,-3.979 -3.725,-3.979 0,0 -2.431,2.376 -2.185,4.781 -0.797,-0.133 -1.564,-0.225 -2.288,-0.261 -0.2,-0.721 -0.493,-1.455 -0.905,-2.17 -1.769,-3.082 -6.854,-3.482 -6.854,-3.482 0,0 -2.222,4.597 -0.455,7.676 0.545,0.947 1.216,1.731 1.938,2.349 -1.7,-0.759 -3.584,-1.179 -5.563,-1.179 -4.732,0 -9.046,2.438 -11.499,6.361 -2.132,-0.963 -4.448,-1.465 -6.801,-1.465 -5.452,0 -10.417,2.608 -13.503,6.954 -2.995,-2.587 -6.825,-4.031 -10.848,-4.031 -9.159,0 -16.61,7.451 -16.61,16.609 0,2.702 0.661,5.354 1.919,7.734 -0.709,1.646 -1.081,3.436 -1.081,5.234 0,6.835 5.216,12.474 11.876,13.147 v 12.641 c 0,1.657 1.343,3 3,3 1.657,0 3,-1.343 3,-3 V 81.932 c 1.799,0.725 3.723,1.104 5.688,1.104 0.104,0 0.208,-0.011 0.312,-0.013 v 14.794 c 0,1.657 1.343,3 3,3 1.657,0 3,-1.343 3,-3 V 81.67 c 1.058,-0.48 2.066,-1.076 3,-1.795 2.901,2.26 6.45,3.486 10.169,3.486 2.018,0 3.984,-0.375 5.831,-1.07 v 11.526 c 0,1.657 1.343,3 3,3 1.657,0 3,-1.343 3,-3 V 80.775 c 1.772,0.841 3.718,1.288 5.704,1.288 0.438,0 0.869,-0.024 1.296,-0.065 v 15.819 c 0,1.657 1.343,3 3,3 1.657,0 3,-1.343 3,-3 V 79.881 c 3.648,-2.389 6.067,-6.506 6.067,-11.183 0,-0.5 -0.028,-1.001 -0.084,-1.5 3.368,-3.138 5.277,-7.499 5.277,-12.138 0,-3.262 -0.979,-6.4 -2.717,-9.06 0.746,0.195 1.537,0.399 2.384,0.628 7.699,2.084 13.054,-0.367 14.267,-4.848 1.213,-4.479 -4.046,-9.801 -11.744,-11.886 z m -10.87,34.966 -0.941,0.763 0.239,1.188 c 0.126,0.621 0.189,1.257 0.189,1.889 0,2.215 -0.777,4.25 -2.067,5.854 -1.461,1.817 -3.584,3.072 -6,3.409 -0.425,0.06 -0.855,0.101 -1.296,0.101 -2.065,0 -4.068,-0.697 -5.704,-1.961 -0.139,-0.107 -0.28,-0.212 -0.413,-0.327 l -1.377,-1.192 -1.315,1.26 c -0.875,0.837 -1.851,1.533 -2.895,2.081 -1.786,0.938 -3.776,1.438 -5.831,1.438 -3.291,0 -6.407,-1.267 -8.773,-3.567 l -1.399,-1.359 -1.394,1.365 c -0.498,0.488 -1.037,0.92 -1.602,1.302 -1.77,1.197 -3.836,1.861 -6,1.921 -0.104,0.002 -0.207,0.015 -0.312,0.015 -2.01,0 -3.961,-0.537 -5.688,-1.55 -0.182,-0.107 -0.363,-0.214 -0.54,-0.331 l -0.763,-0.507 -0.882,0.247 c -0.827,0.23 -1.66,0.348 -2.478,0.348 -0.456,0 -0.9,-0.044 -1.338,-0.108 -4.447,-0.651 -7.876,-4.481 -7.876,-9.106 0,-1.521 0.38,-3.03 1.1,-4.364 l 0.548,-1.018 -0.608,-0.983 c -1.229,-1.988 -1.878,-4.271 -1.878,-6.603 0,-6.953 5.657,-12.609 12.61,-12.609 3.758,0 7.293,1.66 9.701,4.554 l 1.975,2.374 1.359,-2.772 c 2.14,-4.366 6.476,-7.079 11.317,-7.079 2.326,0 4.605,0.648 6.591,1.874 l 1.985,1.226 0.908,-2.149 c 1.5,-3.552 4.96,-5.847 8.815,-5.847 4.745,0 8.716,3.406 9.439,8.099 l 0.146,0.945 0.828,0.479 c 3.887,2.254 6.301,6.432 6.301,10.904 0,3.816 -1.706,7.388 -4.681,9.796 z"
         inkscape:connector-curvature="0" />
      <path
         inkscape:connector-curvature="0"
         id="path4737"
         d="m -75.805853,79.00743 c -1.885438,-0.356947 -4.568005,-1.771682 -6.278563,-3.311192 l -1.52856,-1.375715 -0.59644,0.650195 c -1.268392,1.38271 -3.551372,2.83917 -5.267357,3.360385 -1.393293,0.4232 -2.198717,0.506902 -4.084109,0.424442 -2.162726,-0.09459 -2.512584,-0.185775 -4.421759,-1.15248 -1.946175,-0.985437 -2.134459,-1.032775 -3.072799,-0.77252 -0.54977,0.152483 -1.79342,0.226295 -2.76367,0.164028 -3.20228,-0.20551 -5.8401,-1.899195 -7.37928,-4.73807 -0.82176,-1.515655 -0.85746,-1.690798 -0.85746,-4.206503 0,-2.388157 0.0628,-2.744132 0.6957,-3.94538 l 0.69571,-1.32038 -1.00726,-2.05462 c -1.91777,-3.911935 -1.94514,-7.380871 -0.0882,-11.17962 3.22867,-6.604874 11.65442,-8.962242 17.841805,-4.991807 1.160593,0.744751 2.998462,2.555773 4.275933,4.213474 l 0.652466,0.846667 1.195015,-2.313767 c 1.641988,-3.179194 3.358583,-4.982715 5.955358,-6.256928 4.340115,-2.129654 8.36346,-1.817961 12.948302,1.003122 l 1.19317,0.734165 0.971493,-2.054963 c 1.961057,-4.148162 5.179987,-6.147526 9.45561,-5.873133 4.23109,0.271535 7.82515,3.525237 8.543752,7.734658 0.162998,0.9548 0.343228,1.18365 1.573168,1.997543 5.435437,3.596818 7.29323,10.684115 4.277237,16.317254 -0.3736,0.697792 -1.411712,2.024927 -2.306917,2.949187 l -1.627643,1.680471 0.0027,2.81953 c 0.0025,2.58922 -0.05491,2.93673 -0.70195,4.254385 -2.762557,5.625757 -9.99305,7.01111 -14.64718,2.806382 -0.527362,-0.476432 -1.041925,-0.86624 -1.14348,-0.86624 -0.101557,0 -0.80734,0.569105 -1.568407,1.26468 -3.02375,2.763535 -7.028288,3.932618 -10.936345,3.19275 z"
         style="opacity:1;fill:#ffffff;fill-opacity:1;stroke:none;stroke-width:1;stroke-miterlimit:4;stroke-dasharray:none;stroke-opacity:1" />
    </g>
  </g>
</svg>
