<?xml version="1.0" encoding="UTF-8" standalone="no"?>
<svg
   xmlns:dc="http://purl.org/dc/elements/1.1/"
   xmlns:cc="http://creativecommons.org/ns#"
   xmlns:rdf="http://www.w3.org/1999/02/22-rdf-syntax-ns#"
   xmlns:svg="http://www.w3.org/2000/svg"
   xmlns="http://www.w3.org/2000/svg"
   viewBox="0 0 469.62535 206.24397"
   height="206.24397"
   width="469.62534"
   xml:space="preserve"
   id="svg2"
   version="1.1"><metadata
     id="metadata8"><rdf:RDF><cc:Work
         rdf:about=""><dc:format>image/svg+xml</dc:format><dc:type
           rdf:resource="http://purl.org/dc/dcmitype/StillImage" /><dc:title></dc:title></cc:Work></rdf:RDF></metadata><defs
     id="defs6" /><g
     transform="matrix(1.3333333,0,0,-1.3333333,0,206.24396)"
     id="g10"><path
       d="m 308.53,108.47219 c -28.586,0 -67.898,-15.899003 -104.412,-34.715003 l -35.376,17.958 c 28.906,16.096003 54.113,32.478003 67.972,41.802003 l 6.33,4.259 c 2.658,1.87 3.144,5.788 1.082,8.703 l -3.594,5.087 c -2.062,2.92 -5.634,3.979 -7.941,2.355 l -1.401,-0.906 c -11.071,-7.547 -37.368,-25.031 -68.06,-42.367 -5.306,-2.999 -10.498,-5.853 -15.571,-8.567 -47.945,20.33 -82.878,30.635 -103.865,30.635 -20.343,0 -43.694,-4.837 -43.694,-42.525003 0,-20.198 7.583,-44.271 43.694,-44.271 28.582,0 67.893,15.899 104.407,34.715 l 35.376,-17.958 c -27.334,-15.225 -51.328,-30.683 -65.577,-40.204 h -0.004 c -7.718,-5.157 -8.235,-5.516 -8.235,-5.516 -2.92,-2.057 -3.629,-6.129 -1.567,-9.0490001 l 3.594,-5.086 c 2.062,-2.91599998 6.024,-3.70399998 8.808,-1.743 0,0 0.022,0.013 5.126,3.415 l 0.009,-0.009 c 12.813,8.6110001 36.431,23.9900001 63.459,39.2590001 5.31,2.999 10.497,5.857 15.571,8.567 47.944,-20.33 82.878,-30.635 103.869,-30.635 20.339,0 43.689,4.833 43.689,42.525 0,20.198 -7.582,44.271003 -43.689,44.271003 M 43.694,65.142187 c -20.466,0 -24.471,9.184 -24.471,25.049 0,19.778003 6.413,23.298003 24.471,23.298003 16.07,0 43.969,-7.871 81.333,-22.891003 -34.676,-16.736 -62.4,-25.456 -81.333,-25.456 m 264.836,-24.243 c -16.07,0 -43.974,7.875 -81.333,22.895 34.671,16.736 62.395,25.456 81.333,25.456 20.461,0 24.462,-9.184 24.462,-25.049 0,-19.783 -6.404,-23.302 -24.462,-23.302"
       style="fill:#f1471f;fill-opacity:1;fill-rule:nonzero;stroke:none;stroke-width:0.1"
       id="path16" /></g></svg>