<?xml version="1.0" encoding="utf-8"?>
<svg version="1.1" xmlns="http://www.w3.org/2000/svg" x="0px" y="0px"
	 viewBox="0 0 730 150" enable-background="new 0 0 730 150" xml:space="preserve">
<path fill-rule="evenodd" clip-rule="evenodd" fill="#e9e5e0" d="M555.6,85.2v21.2h18.6c0-7.7-7.4-21.2-15.8-21.2H555.6z
	 M555.3,40.3v36.9c0,0,13-4.5,13-19C568.4,43.4,555.3,40.3,555.3,40.3 M566.3,79.2c0,0,10.7,1,19.6,9.7c8.9,8.7,10.3,18.3,10.3,18.3
	l-22.5,22h-41.6l0-72.2l33.6-32.8c0,0,19.5,5,19.5,26.2c0,16.4-11.3,24.7-18.8,28L566.3,79.2z M368.2,81.2l-16,15.5L364.4,53l9.7,36
	L368.2,81.2z M379.4,22.1h-0.5l-19.4,19l0.5,2.2l-26,88h8.4l8.8-31.6l7.7,10.4l16.4-15.8l9.9,37h1.3l21.7-16.7L379.4,22.1z
	 M315,67.5c-7.8-6-21.2-13.3-21.2-23.4c0-7.1,3.5-12,10.6-12c11.6,0,17.4,20.7,17.4,20.7h1l11.6-9.9c-7.8-12-17.2-18.2-29.7-18.2
	c-18.4,0-29.6,13.7-29.6,26.4c0,15,8.3,23.7,20.1,32.5c13.2,9.9,22.4,14.8,22.4,25c0,10.5-6.1,14.3-12.8,14.3
	c-10.4,0-13.9-10.2-18.4-26h-0.8l-12.3,12c0,0,5.5,22.5,30.2,22.5c17.1,0,32.7-10.8,32.7-32.2C336.3,86.9,327.6,77.2,315,67.5
	 M219.7,74.8l27.6,56.5h0.5l19.4-19V24.9h-0.6l-16.3,16v42.8l-27.6-57.4h-0.5l-19.4,19v86h0.6l16.3-16V74.8z M431.5,129.1l0-106.1
	L457.2,0h0.8l0,106.4h37.1l0,1l-21.2,21.8H431.5z M500.6,131.4h0.8l22.3-21.7V24.3h-0.8l-22.3,21.8L500.6,131.4z M684.1,26.3h44.8
	v0.8l-21.2,20.7h-14v25.9l5-4.9h22.1v0.6l-16.3,16h-11v21.5h35.2v0.8l-22.1,21.6h-36.6V54.5l7.1-7h-13.8v-0.7L684.1,26.3z
	 M153.9,26.3h44.8v0.8l-21.2,20.7h-14v25.9l5-4.9h22.1v0.6l-16.3,16h-11v21.5h35.2v0.8l-22.1,21.6h-36.6V54.5l7.1-7H133v-0.7
	L153.9,26.3z M94.5,41.9v38.4c0,0,13-4.5,13-19C107.5,45.3,94.5,41.9,94.5,41.9 M71.3,59.9l36.6-35.8c0,0,19.5,7.7,19.5,29.4
	c0,21.6-18.4,28.3-24.5,30.2c0,0,17.3,16.3,32.9,25.7l-15.3,21.7h-0.8c0,0-18.4-23.7-24.4-40.4h-0.8v17.7L72,131.2h-0.7L71.3,59.9z
	 M623.8,41.9v38.4c0,0,13-4.5,13-19C636.8,45.3,623.8,41.9,623.8,41.9 M600.6,59.9l36.6-35.8c0,0,19.5,7.7,19.5,29.4
	c0,21.6-18.4,28.3-24.5,30.2c0,0,17.3,16.3,32.9,25.7l-15.3,21.7h-0.8c0,0-18.4-23.7-24.4-40.4h-0.8v17.7l-22.6,22.8h-0.7
	L600.6,59.9z M0,149.8V51.5l24-22.7h0.8v49.1c7.2,0,24.8-5.5,24.8-26.9c0-21.4-17.4-27.5-29.1-27.5c-11.7,0-14.9,1.8-14.9,1.8
	l-0.5-0.7L29.9,0.6c15.5,0,40.8,13.2,40.8,43.9c0,27.2-25.4,43.6-46.2,43.6v39.2L0.8,149.8H0z"/>
</svg>
