<?xml version="1.0" encoding="utf-8"?>
<svg version="1.1" xmlns="http://www.w3.org/2000/svg" x="0px" y="0px"
	 viewBox="0 0 92.9 80" enable-background="new 0 0 92.9 80" xml:space="preserve">
<path fill="#7297a7" d="M18.2,80C12,78.4,7.2,74.6,4,68.7c-2.7-4.8-4-10-4-15.5C0,47.7,0.6,43,1.7,39c1.1-4,2.7-7.7,4.6-11.1
	c1.9-3.4,4.2-6.5,6.8-9.4c2.6-2.9,5.3-5.4,8.3-7.8C26.7,6.5,32.9,2.9,39.9,0l4.2,7.1l-0.2,2.2c-5.4,1.8-10.3,6-14.8,12.8
	c-4.5,6.7-6.7,13.7-6.7,20.8c0,4.4,0.8,7.8,2.3,10.4c2.7,4.4,5.7,6.7,8.9,7.1l-0.5,4.2L18.2,80z M67,80c-6.2-1.6-10.9-5.4-14.2-11.3
	c-2.7-4.8-4-10-4-15.5c0-5.5,0.6-10.2,1.7-14.2c1.1-4,2.7-7.7,4.6-11.1c1.9-3.4,4.2-6.5,6.8-9.4c2.6-2.9,5.3-5.4,8.3-7.8
	C75.6,6.5,81.8,2.9,88.8,0l4.2,7.1l-0.2,2.2c-5.4,1.8-10.3,6-14.8,12.8c-4.5,6.7-6.7,13.7-6.7,20.8c0,4.4,0.8,7.8,2.3,10.4
	c2.7,4.4,5.7,6.7,8.9,7.1l-0.5,4.2L67,80z"/>
</svg>
