<?xml version="1.0" encoding="UTF-8" standalone="no"?>
<svg
   xmlns:svg="http://www.w3.org/2000/svg"
   xmlns="http://www.w3.org/2000/svg"
   version="1.2"
   viewBox="0 0 12 12"
   height="16"
   width="16">
  <path
     style="fill:#000"
     d="M 11.337777,0 H 0.66222435 C 0.29687506,0 0,0.296295 0,0.662065 v 10.6754 c 0,0.36577 0.29687506,0.662525 0.66222435,0.662525 H 6.409927 V 7.35311 H 4.846048 V 5.54175 H 6.409927 V 4.20658 c 0,-1.550035 0.9466905,-2.394295 2.3290435,-2.394295 0.6622245,0 1.2316175,0.0492 1.3975195,0.07131 V 3.50356 l -0.9591005,4.75e-4 c -0.751838,0 -0.897518,0.357025 -0.897518,0.88153 V 5.54176 H 10.073071 L 9.839614,7.35312 H 8.2798715 V 12 H 11.337777 C 11.703585,12 12,11.703245 12,11.337475 V 0.662065 C 12,0.296295 11.703585,0 11.337777,0" />
</svg>
