<?xml version="1.0" encoding="UTF-8" standalone="no"?>
<svg
   xmlns:svg="http://www.w3.org/2000/svg"
   xmlns="http://www.w3.org/2000/svg"
   id="svg4"
   viewBox="0 0 16 16"
   version="1.1"
   width="16"
   height="16">
  <path
     d="m 5.0316768,14.500409 c 6.0377592,0 9.3401492,-5.0022363 9.3401492,-9.3401573 0,-0.1420828 0,-0.2835165 -0.01027,-0.4243171 A 6.6790369,6.6790369 0 0 0 16,3.0367387 6.5523172,6.5523172 0 0 1 14.114556,3.5532143 3.2940773,3.2940773 0 0 0 15.557754,1.7793699 6.5785558,6.5785558 0 0 1 13.473286,2.5343388 3.2857573,3.2857573 0 0 0 7.8790488,5.5282508 9.3196722,9.3196722 0 0 1 1.1136076,2.0984874 3.2851173,3.2851173 0 0 0 2.1299254,6.4805666 3.2582373,3.2582373 0 0 1 0.64000795,6.0696841 c 0,0.013752 0,0.027499 0,0.0416 A 3.2838373,3.2838373 0 0 0 3.2735978,9.3348847 3.2774373,3.2774373 0 0 1 1.7913587,9.3855277 3.2863973,3.2863973 0 0 0 4.8582372,11.665214 6.5868766,6.5868766 0 0 1 0.78143965,13.073551 6.6822369,6.6822369 0 0 1 0,13.021561 a 9.2934376,9.2934376 0 0 0 5.0316768,1.47629"
     style="fill:#000000;stroke-width:1" />
</svg>
