<svg xmlns="http://www.w3.org/2000/svg" width="16" height="16" viewBox="0 0 16 16"><title>whatsapp</title><path d="M8,0A7.814,7.814,0,0,0,2.15,13l-.757,3,2.991-1.254A7.816,7.816,0,1,0,8,0Zm4.82,11.121a.99.99,0,0,1-.2.356,2.063,2.063,0,0,1-.41.373,2.867,2.867,0,0,1-.682.37,1.312,1.312,0,0,1-.325.079,1.258,1.258,0,0,0-.174.031,1.544,1.544,0,0,1-.7.014,6.509,6.509,0,0,1-.94-.267c-.334-.112-.665-.238-1-.368a6.718,6.718,0,0,1-1.807-1.072A10.706,10.706,0,0,1,4.566,8.45c-.146-.213-.3-.421-.438-.642A4.587,4.587,0,0,1,3.553,6.6a2.867,2.867,0,0,1-.137-.749,2.587,2.587,0,0,1,.642-1.863c.059-.07.123-.137.185-.2A.843.843,0,0,1,4.891,3.5c.081.006.166.014.25.017s.154,0,.227,0a.346.346,0,0,1,.339.174,1.619,1.619,0,0,1,.118.219c.177.421.354.85.53,1.271.065.163.137.325.2.485a.458.458,0,0,1,.053.18.383.383,0,0,1-.036.2,1.649,1.649,0,0,1-.258.424c-.123.143-.247.283-.368.429a.529.529,0,0,0-.07.087.3.3,0,0,0-.031.289l.045.087A6.542,6.542,0,0,0,8.031,9.609a6.166,6.166,0,0,0,.772.412c.115.053.233.1.348.154.034.011.067.028.1.036a.322.322,0,0,0,.345-.084,1.051,1.051,0,0,0,.1-.1c.241-.278.477-.561.69-.861a.3.3,0,0,1,.073-.084A.257.257,0,0,1,10.71,9a1.474,1.474,0,0,1,.272.09c.314.146.631.292.943.44.261.126.522.255.78.384.036.014.073.039.112.056a.263.263,0,0,1,.14.222.608.608,0,0,1,.006.123A3.132,3.132,0,0,1,12.82,11.121Z"/></svg>