<?xml version="1.0" encoding="UTF-8" standalone="no"?>
<svg
   xmlns:svg="http://www.w3.org/2000/svg"
   xmlns="http://www.w3.org/2000/svg"
   version="1.1"
   viewBox="0 0 4.2333332 4.2333335"
   height="16"
   width="16">
  <path
     style="fill:#000000;"
     d="M 2.1254516,0 C 0.9636407,0 0,0.90582335 0,2.0975533 c 0,0.36973 0.114757,0.73089 0.2992065,1.04903 L 0,4.2333333 1.1172444,3.9418833 c 0.3079025,0.16711 0.6544221,0.25518 1.0071737,0.25528 h 0.00103 c 1.1616915,0 2.1074081,-0.94145 2.1078817,-2.09806 C 4.2335589,1.5385833 4.0142691,1.0114333 3.6163133,0.61495335 3.2183553,0.21880335 2.6892979,0 2.1254481,0 Z m 5.168e-4,0.54674335 c 0.421158,1.4e-4 0.8174569,0.1638 1.1151774,0.46042995 0.2976851,0.29661 0.4610954,0.69072 0.4609539,1.11001 -3.575e-4,0.86527 -0.7075765,1.56942 -1.5766481,1.56942 h -5.167e-4 c -0.2829398,-10e-5 -0.5604571,-0.0762 -0.802535,-0.21911 l -0.057361,-0.0336 -0.5968628,0.15554 0.1591635,-0.57877 -0.0377238,-0.0594 c -0.1578323,-0.24987 -0.2409543,-0.53858 -0.2408122,-0.83509 3.19e-4,-0.8652 0.7074181,-1.56940995 1.5771647,-1.56940995 z M 1.3709757,1.1275833 c -0.035098,0 -0.091759,0.0131 -0.1400431,0.0656 -0.048245,0.0525 -0.1844849,0.17972 -0.1844849,0.4377 0,0.25803 0.188641,0.50711 0.214974,0.54208 0.026373,0.035 0.3713294,0.56411 0.8996867,0.79117 0.1256246,0.054 0.2237283,0.0865 0.30024,0.11059 0.1261378,0.0399 0.2410385,0.0342 0.3317628,0.0207 0.1011867,-0.015 0.3116324,-0.12661 0.3555339,-0.24908 0.043862,-0.12244 0.043636,-0.22723 0.030489,-0.24908 -0.013187,-0.0219 -0.048103,-0.0352 -0.100769,-0.0615 v 5.2e-4 c -0.052666,-0.0262 -0.3113841,-0.15301 -0.3596679,-0.17053 -0.048244,-0.0175 -0.083758,-0.0262 -0.1188559,0.0263 -0.035098,0.0525 -0.1356829,0.17015 -0.1663981,0.20516 -0.030715,0.0349 -0.061538,0.0393 -0.1142049,0.0129 -0.052666,-0.0262 -0.2225974,-0.0814 -0.4237468,-0.25994 -0.1565765,-0.13896 -0.2622901,-0.31083 -0.2930054,-0.36328 -0.030755,-0.0525 -0.00312,-0.0809 0.023254,-0.10697 0.023727,-0.0235 0.052732,-0.0608 0.079065,-0.0915 0.026372,-0.0307 0.035181,-0.0528 0.05271,-0.0879 0.017568,-0.0349 0.00853,-0.0653 -0.00465,-0.0915 -0.013147,-0.0262 -0.1183626,-0.2847 -0.162264,-0.38964 -0.042757,-0.1022 -0.086044,-0.0883 -0.1183391,-0.0899 -0.030715,-0.002 -0.066188,-0.002 -0.1012858,-0.002 z"/>
</svg>
