<?xml version="1.0" encoding="UTF-8" standalone="no"?>
<svg xmlns="http://www.w3.org/2000/svg" width="337" height="128" version="1.1">
  <g style="fill:#ffffff;stroke:none">
    <path d="m 5.690234,126.32435 c 4.737426,2.31731 10.260358,2.48882 14.676193,1.22913 8.723968,-2.48865 12.172848,-9.17944 10.48302,-15.10312 -1.382586,-4.84665 -4.720048,-7.1557 -9.573618,-7.63462 l -4.73051,-0.4558 c -3.530575,-0.33223 -5.692075,-0.3562 -6.168299,-2.0256 -0.4455,-1.5617 0.724215,-2.76889 2.985984,-3.4141 2.58488,-0.73738 4.877043,-0.45951 7.72274,0.53396 l 2.972142,-7.13712 c -4.137462,-2.25553 -8.983448,-2.50368 -12.96847,-1.36689 -7.646935,2.18141 -11.634162,8.61814 -9.928972,14.59567 1.444035,5.06206 5.635357,7.30222 9.835111,7.73473 l 4.884299,0.58662 c 3.299807,0.33983 5.230538,0.3714 5.706762,2.0408 0.4455,1.5617 -0.478085,2.81514 -3.278371,3.61397 -2.584879,0.73738 -6.107698,0.22824 -9.15327,-1.05762 l -3.464741,7.85999"/>
    <path d="m 33.061675,104.59827 c 3.410379,11.95507 12.854867,15.66662 22.009648,13.05507 4.308133,-1.22896 7.855433,-4.10438 9.834103,-8.3958 l -6.65972,-4.15654 c -1.04699,2.04569 -2.64769,3.78346 -5.340268,4.55157 -4.523539,1.29041 -8.583863,-1.51124 -10.458036,-8.08114 -1.812724,-6.35449 0.666145,-11.13802 4.866574,-12.33626 2.261769,-0.64521 4.015415,-0.21372 6.168806,0.80254 L 56.916466,82.8854 C 53.73263,81.11488 49.348519,80.03615 44.932684,81.29584 35.885606,83.87667 29.712743,92.85861 33.061675,104.59827"/>
    <path d="m 64.948246,95.85149 c 3.41037,11.95507 9.747,16.20379 19.548,13.40789 9.801,-2.7959 12.72689,-9.6869 9.31651,-21.64197 l -25.86979,-87.28962 -8.93938,2.5501 26.17703,88.36666 c 1.84507,6.22845 0.70395,9.00016 -2.95796,10.04478 -3.66192,1.04462 -5.92268,-0.75629 -7.70468,-7.00309 l -5.4689,-19.1712 -9.2625,2.64227 5.16167,18.09418"/>
    <path d="m 76.088616,74.49701 3.90197,13.67833 c 2.15069,7.53923 7.0561,12.89503 14.27222,10.83652 4.63124,-1.32114 6.509474,-4.53571 6.065494,-9.76658 l 0.21541,-0.0614 c 2.24455,3.78548 6.18265,4.52556 9.19834,3.66529 6.89302,-1.96635 7.03415,-8.41235 4.94491,-15.73618 l -3.59473,-12.6013 -35.003614,9.98536 m 23.85985,3.20983 6.677614,-1.9049 0.891,3.1234 c 0.86028,3.01569 0.39807,4.66163 -1.756,5.27612 -2.15407,0.61448 -4.06133,-0.35553 -4.92161,-3.37122 l -0.891004,-3.1234 m -14.10915,4.02487 7.64695,-2.18142 1.07534,3.76962 c 1.04462,3.66191 0.45917,5.69241 -2.12571,6.42979 -2.58487,0.73738 -4.47661,-0.58646 -5.52123,-4.24838 l -1.07535,-3.76961"/>
    <path d="m 128.73438,79.51669 -0.0989,-2.59231 c -0.0908,-3.58459 -0.42744,-8.03083 -0.68742,-11.8001 l 0.21541,-0.0615 c 1.86016,3.25456 3.9354,7.26306 5.74947,10.35607 l 1.28367,2.25434 -6.46221,1.84345 m 14.01799,11.78255 9.80101,-2.79589 -20.64799,-31.96192 -11.20116,3.19531 -0.67728,38.04531 9.4779,-2.70373 -0.39671,-7.92312 9.80101,-2.7959 3.84322,6.93994"/>
    <path d="m 167.25071,84.3107 10.87805,-3.10314 c 10.12411,-2.88807 15.94246,-10.2548 12.40918,-22.64068 -3.53327,-12.38588 -12.27043,-15.251 -22.93306,-12.20931 l -10.33953,2.94952 9.98536,35.00361 m 7.14253,-10.07381 -5.74542,-20.14054 0.53851,-0.15362 c 5.06206,-1.44404 9.53868,-0.85757 11.87371,7.32788 2.33504,8.18545 -1.06623,11.36862 -6.12829,12.81265 l -0.53851,0.15363"/>
    <path d="m 201.85462,74.43936 9.2625,-2.64228 -9.98536,-35.00361 -9.26249,2.64228 9.98535,35.00361"/>
    <path d="m 224.81734,67.88886 11.20116,-3.19531 0.35417,-37.95313 -9.4779,2.70372 0.80862,16.30779 c 0.1445,3.97692 0.47369,7.78469 0.57971,11.83083 l -0.21541,0.0615 c -2.04468,-3.4931 -3.72016,-6.91683 -5.74947,-10.35608 l -8.02475,-14.24926 -9.80101,2.7959 20.32488,32.05409"/>
    <path d="m 249.71113,60.78751 9.26249,-2.64228 -9.98535,-35.00361 -9.2625,2.64228 9.98536,35.00361"/>
    <path d="m 266.75013,55.92685 8.83168,-2.51938 -2.88807,-10.12412 c -1.22897,-4.30814 -3.42693,-9.15514 -4.99454,-13.01726 l 0.21541,-0.0615 5.56631,6.85605 12.22501,13.45871 9.4779,-2.70373 -9.98535,-35.00361 -8.83168,2.51938 2.88807,10.12412 c 1.22896,4.30813 3.48837,9.37054 4.99453,13.01726 l -0.2154,0.0615 -5.58167,-6.9099 -12.20965,-13.40486 -9.47791,2.70373 9.98536,35.00361"/>
    <path d="m 296.50806,28.80303 c 3.41038,11.95507 12.96257,15.6359 22.54816,12.90145 4.95435,-1.41331 8.92487,-4.64239 10.83382,-7.74924 l -4.76225,-16.69403 -13.35522,3.8098 2.15069,7.53923 5.16976,-1.47476 1.38259,4.84666 c -0.52332,0.61516 -1.53891,1.13781 -2.50824,1.41432 -6.24679,1.782 -10.19941,-1.05037 -12.07359,-7.62027 -1.81272,-6.35449 0.66615,-11.13802 5.40509,-12.48988 2.80029,-0.79883 4.55394,-0.36734 6.70733,0.64892 l 3.43368,-7.15231 c -3.18383,-1.77053 -7.56795,-2.84925 -12.5223,-1.43594 -9.58559,2.73445 -15.75846,11.71639 -12.40952,23.45605"/>
    <path d="M 15.744289,128.17321 337.98296,36.24933"/>
    <path d="m 88.855576,88.31833 c -1.24548,-1.32575 -2.81486,-5.8688 -2.20818,-6.39227 0.51627,-0.44547 6.33188,-2.03042 6.57137,-1.79092 0.29491,0.2949 1.62821,5.50277 1.63492,6.38599 0.01,1.30388 -1.94665,2.99942 -3.46117,2.99942 -0.82942,0 -1.87139,-0.49377 -2.53694,-1.20222 z" style="fill:#000000"/>
    <path d="m 102.85557,83.44209 c -1.07044,-0.62466 -2.75592,-4.94047 -2.13881,-5.47659 0.48344,-0.42 4.25264,-1.57693 5.13752,-1.57693 0.69961,0 1.63231,2.77461 1.63231,4.85582 0,2.3568 -2.40366,3.49749 -4.63102,2.1977 l 0,0 z" style="fill:#000000"/>
  </g>
</svg>
