<?xml version="1.0" encoding="UTF-8" standalone="no"?>
<svg width="14px" height="15px" viewBox="0 0 14 15" version="1.1" xmlns="http://www.w3.org/2000/svg">
    <g stroke="none" stroke-width="1" fill="#FFFFFF" fill-rule="evenodd" transform="translate(-0.236213, -0.643351)">
        <path d="M7.214,2.995 C9.902,2.995 12.089,5.182 12.089,7.871 C12.089,10.558 9.902,12.745 7.214,12.745 C4.526,12.745 2.339,10.558 2.339,7.871 C2.339,5.182 4.526,2.995 7.214,2.995 M7.214,0.995 C3.419,0.995 0.339,4.075 0.339,7.871 C0.339,11.668 3.419,14.745 7.214,14.745 C11.011,14.745 14.089,11.668 14.089,7.871 C14.089,4.075 11.011,0.995 7.214,0.995"/>
        <path d="M7.312,7.745 C7.037,7.745 6.812,7.523 6.812,7.245 L6.812,5.245 C6.812,4.97 7.037,4.745 7.312,4.745 C7.587,4.745 7.812,4.97 7.812,5.245 L7.812,7.245 C7.812,7.523 7.587,7.745 7.312,7.745"/>
        <path d="M9.812,9.745 C9.703,9.745 9.591,9.711 9.5,9.637 L6.999,7.637 C6.785,7.464 6.749,7.15 6.921,6.933 C7.095,6.72 7.408,6.684 7.624,6.855 L10.124,8.855 C10.339,9.028 10.376,9.344 10.203,9.558 C10.103,9.681 9.958,9.745 9.812,9.745"/>
    </g>
</svg>
