<?xml version="1.0" encoding="utf-8"?>
<!-- Generator: Adobe Illustrator 20.0.0, SVG Export Plug-In . SVG Version: 6.00 Build 0)  -->
<!DOCTYPE svg PUBLIC "-//W3C//DTD SVG 1.0//EN" "http://www.w3.org/TR/2001/REC-SVG-20010904/DTD/svg10.dtd">
<svg version="1.0"
	 xmlns="http://www.w3.org/2000/svg" xmlns:xlink="http://www.w3.org/1999/xlink" x="0px" y="0px" viewBox="0 0 18 18"
	 xml:space="preserve">
<g>
	<path d="M6,17H3c-0.6,0-1-0.4-1-1V2c0-0.6,0.4-1,1-1h3c0.6,0,1,0.4,1,1v14C7,16.6,6.6,17,6,17z"/>
	<path d="M15,17h-3c-0.6,0-1-0.4-1-1V2c0-0.6,0.4-1,1-1h3c0.6,0,1,0.4,1,1v14C16,16.6,15.6,17,15,17z"/>
</g>
</svg>
