<?xml version="1.0" encoding="utf-8"?>
<!-- Generator: Adobe Illustrator 20.0.0, SVG Export Plug-In . SVG Version: 6.00 Build 0)  -->
<!DOCTYPE svg PUBLIC "-//W3C//DTD SVG 1.0//EN" "http://www.w3.org/TR/2001/REC-SVG-20010904/DTD/svg10.dtd">
<svg version="1.0"
	 xmlns="http://www.w3.org/2000/svg" xmlns:xlink="http://www.w3.org/1999/xlink" x="0px" y="0px" viewBox="0 0 18 18"
	 style="enable-background:new 0 0 18 18;" xml:space="preserve">
<style type="text/css">
	.st0{fill:#FFFFFF;}
</style>
<path class="st0" d="M1,7h1c0.6,0,1-0.4,1-1V3h3c0.6,0,1-0.4,1-1V1c0-0.6-0.4-1-1-1H0v6C0,6.6,0.4,7,1,7z"/>
<path class="st0" d="M11,1v1c0,0.6,0.4,1,1,1h3v3c0,0.6,0.4,1,1,1h1c0.6,0,1-0.4,1-1V0h-6C11.4,0,11,0.4,11,1z"/>
<path class="st0" d="M17,11h-1c-0.6,0-1,0.4-1,1v3h-3c-0.6,0-1,0.4-1,1v1c0,0.6,0.4,1,1,1h6v-6C18,11.4,17.6,11,17,11z"/>
<path class="st0" d="M7,17v-1c0-0.6-0.4-1-1-1H3v-3c0-0.6-0.4-1-1-1H1c-0.6,0-1,0.4-1,1v6h6C6.6,18,7,17.6,7,17z"/>
</svg>
