<?xml version="1.0" encoding="UTF-8" standalone="no"?>
<svg
   xmlns:dc="http://purl.org/dc/elements/1.1/"
   xmlns:cc="http://creativecommons.org/ns#"
   xmlns:rdf="http://www.w3.org/1999/02/22-rdf-syntax-ns#"
   xmlns:svg="http://www.w3.org/2000/svg"
   xmlns="http://www.w3.org/2000/svg"
   id="svg6"
   xml:space="preserve"
   viewBox="0 0 24 18"
   y="0px"
   x="0px"
   version="1.0"><metadata
     id="metadata12"><rdf:RDF><cc:Work
         rdf:about=""><dc:format>image/svg+xml</dc:format><dc:type
           rdf:resource="http://purl.org/dc/dcmitype/StillImage" /><dc:title></dc:title></cc:Work></rdf:RDF></metadata><defs
     id="defs10" /><path
     id="path2"
     d="M 12 1 L 6.4003906 5 L 1 5 C 0.4 5 0 5.4 0 6 L 0 12 C 0 12.6 0.4 13 1 13 L 6.4003906 13 L 12 17 L 12 1 z M 15 6 L 15 7 C 15 7.3 15.100781 7.5992187 15.300781 7.6992188 L 16.599609 9 L 15.300781 10.199219 C 15.100781 10.399219 15 10.600391 15 10.900391 L 15 12 L 16 12 C 16.3 12 16.499219 11.899219 16.699219 11.699219 L 18 10.400391 L 19.300781 11.599609 C 19.500781 11.799609 19.7 11.900391 20 11.900391 L 21 11.900391 L 21 10.900391 C 21 10.600391 20.899219 10.399219 20.699219 10.199219 L 19.5 9 L 20.800781 7.8007812 C 21.000781 7.6007813 21 7.3 21 7 L 21 6 L 20 6 C 19.8 6 19.600781 6.1007812 19.300781 6.3007812 L 18 7.5996094 L 16.699219 6.3007812 C 16.499219 6.1007813 16.3 6 16 6 L 15 6 z " /></svg>