<?xml version="1.0" encoding="utf-8"?>
<!-- Generator: Adobe Illustrator 20.0.0, SVG Export Plug-In . SVG Version: 6.00 Build 0)  -->
<!DOCTYPE svg PUBLIC "-//W3C//DTD SVG 1.0//EN" "http://www.w3.org/TR/2001/REC-SVG-20010904/DTD/svg10.dtd">
<svg version="1.0"
	 xmlns="http://www.w3.org/2000/svg" xmlns:xlink="http://www.w3.org/1999/xlink" x="0px" y="0px" viewBox="0 0 18 18"
	 xml:space="preserve">
<path d="M6,0H5C4.4,0,4,0.4,4,1v3H1C0.4,4,0,4.4,0,5v1c0,0.6,0.4,1,1,1h6V1C7,0.4,6.6,0,6,0z"/>
<path d="M18,6V5c0-0.6-0.4-1-1-1h-3V1c0-0.6-0.4-1-1-1h-1c-0.6,0-1,0.4-1,1v6h6C17.6,7,18,6.6,18,6z"/>
<path d="M12,18h1c0.6,0,1-0.4,1-1v-3h3c0.6,0,1-0.4,1-1v-1c0-0.6-0.4-1-1-1h-6v6C11,17.6,11.4,18,12,18z"/>
<path d="M0,12v1c0,0.6,0.4,1,1,1h3v3c0,0.6,0.4,1,1,1h1c0.6,0,1-0.4,1-1v-6H1C0.4,11,0,11.4,0,12z"/>
</svg>
