<?xml version="1.0" encoding="utf-8"?>
<!-- Generator: Adobe Illustrator 20.0.0, SVG Export Plug-In . SVG Version: 6.00 Build 0)  -->
<!DOCTYPE svg PUBLIC "-//W3C//DTD SVG 1.0//EN" "http://www.w3.org/TR/2001/REC-SVG-20010904/DTD/svg10.dtd">
<svg version="1.0"
	 xmlns="http://www.w3.org/2000/svg" xmlns:xlink="http://www.w3.org/1999/xlink" x="0px" y="0px" viewBox="0 0 24 18"
	 style="enable-background:new 0 0 24 18;" xml:space="preserve">
<style type="text/css">
	.st0{fill:#FFFFFF;}
</style>
<path
     d="M15,6h1c0,0,0,0,0,0c0.3,0,0.5,0.1,0.7,0.3L18,7.6l1.3-1.3  C19.6,6.1,19.8,6,20,6h1v1c0,0.3,0,0.6-0.2,0.8L19.5,9l1.2,1.2c0.2,0.2,0.3,0.4,0.3,0.7v1h-1c-0.3,0-0.5-0.1-0.7-0.3L18,10.4  l-1.3,1.3C16.5,11.9,16.3,12,16,12h-1v-1.1c0-0.3,0.1-0.5,0.3-0.7L16.6,9l-1.3-1.3C15.1,7.6,15,7.3,15,7V6z"
     class="st0"
     id="path19165_1_" /><path
     id="path7"
     d="M12,1L6.4,5H1C0.4,5,0,5.4,0,6v6c0,0.6,0.4,1,1,1l5.4,0l5.6,4V1z"
     class="st0" /></svg>
